<svg xmlns="http://www.w3.org/2000/svg" width="100%" height="100%" viewBox="0 0 15 13" fill="none">
  <path d="M10.6522 2.77526C10.9006 2.77526 11.1059 2.95982 11.1383 3.19928L11.1428 3.26584L11.1427 10.9845L12.9718 9.14804C13.1629 8.95601 13.4736 8.95529 13.6656 9.14644C13.8402 9.3202 13.8566 9.59271 13.7146 9.7851L13.6672 9.84023L10.9999 12.5199C10.9838 12.5357 10.9674 12.5501 10.9501 12.5633L10.9999 12.5199C10.9758 12.5441 10.9498 12.5653 10.9225 12.5834C10.9129 12.5893 10.903 12.5954 10.8928 12.6011C10.8834 12.6068 10.8738 12.6118 10.8641 12.6164C10.8545 12.6207 10.8448 12.6249 10.8349 12.6289C10.8224 12.6343 10.8095 12.6388 10.7965 12.6428C10.7889 12.6449 10.781 12.6471 10.7731 12.6491C10.7589 12.6529 10.7447 12.6559 10.7305 12.6582C10.7238 12.6589 10.7168 12.6599 10.7097 12.6607C10.6936 12.6629 10.6776 12.664 10.6616 12.6643C10.6585 12.664 10.6554 12.6641 10.6522 12.6641L10.6427 12.6643C10.6267 12.664 10.6107 12.6629 10.5948 12.6611L10.6522 12.6641C10.6255 12.6641 10.5993 12.6619 10.5737 12.6578C10.5596 12.6559 10.5454 12.6529 10.5313 12.6494C10.5239 12.6472 10.5164 12.6451 10.509 12.6428C10.495 12.6389 10.481 12.634 10.4672 12.6284C10.4597 12.6249 10.4524 12.6217 10.4452 12.6184C10.4339 12.6136 10.4226 12.6077 10.4115 12.6015C10.4014 12.5954 10.3915 12.5893 10.3819 12.5829C10.3743 12.5784 10.3669 12.5732 10.3596 12.5677L10.3543 12.5633C10.337 12.5501 10.3207 12.5357 10.3053 12.5204L10.3045 12.5199L7.63711 9.84023C7.44597 9.6482 7.44669 9.33758 7.63872 9.14644C7.81329 8.97267 8.08587 8.95747 8.2776 9.10041L8.33251 9.14804L10.1616 10.9858L10.1616 3.26584C10.1616 2.9949 10.3813 2.77526 10.6522 2.77526ZM4.15786 1.00027L4.16742 1C4.1834 1.00031 4.19938 1.00139 4.21528 1.00325L4.15786 1.00027C4.18459 1.00027 4.21081 1.00241 4.23638 1.00652C4.25036 1.00843 4.2644 1.01132 4.27831 1.01483C4.28649 1.01723 4.29483 1.01957 4.30308 1.02212C4.31596 1.02575 4.32843 1.03017 4.34073 1.0351C4.34963 1.03906 4.35864 1.043 4.36751 1.04719C4.37804 1.05175 4.38841 1.05711 4.39863 1.06286C4.40737 1.06825 4.41603 1.07349 4.4245 1.07899C4.43323 1.08418 4.44196 1.09025 4.45054 1.09664L4.50563 1.1444L7.17298 3.8241C7.36412 4.01613 7.3634 4.32675 7.17138 4.5179C6.9968 4.69166 6.72422 4.70687 6.53249 4.56392L6.47758 4.51629L4.64801 2.67781L4.64845 10.3985C4.64845 10.6694 4.42881 10.8891 4.15786 10.8891C3.9095 10.8891 3.70424 10.7045 3.67175 10.4651L3.66727 10.3985L3.66684 2.67847L1.83829 4.51629C1.66452 4.69087 1.39201 4.70733 1.19963 4.56527L1.14449 4.5179C0.969921 4.34413 0.953457 4.07162 1.09552 3.87924L1.14289 3.8241L3.81024 1.1444L3.83912 1.11791C3.84591 1.11211 3.85285 1.10649 3.85995 1.10105L3.81024 1.1444C3.8343 1.12022 3.86026 1.09908 3.88763 1.08097C3.89718 1.07502 3.90711 1.06895 3.91726 1.06322C3.92669 1.05754 3.93627 1.05256 3.94597 1.04791C3.95555 1.04367 3.96527 1.03939 3.97514 1.03543C3.98769 1.03006 4.00056 1.02552 4.01357 1.02153C4.02148 1.0194 4.02958 1.01714 4.03776 1.01508C4.05094 1.01146 4.06427 1.00869 4.07766 1.00648C4.08572 1.00547 4.09361 1.00438 4.10157 1.00347C4.11671 1.00139 4.13225 1.00033 4.1478 1.00001C4.15123 1.00031 4.15454 1.00027 4.15786 1.00027Z" fill="#666666"/>
  <path d="M10.9999 12.5199L13.6672 9.84023L13.7146 9.7851C13.8566 9.59271 13.8402 9.3202 13.6656 9.14644C13.4736 8.95529 13.1629 8.95601 12.9718 9.14804L11.1427 10.9845L11.1428 3.26584L11.1383 3.19927C11.1059 2.95982 10.9006 2.77526 10.6522 2.77526C10.3813 2.77526 10.1616 2.9949 10.1616 3.26584L10.1616 10.9858L8.33251 9.14804L8.2776 9.10041C8.08587 8.95747 7.81329 8.97267 7.63872 9.14644C7.44669 9.33758 7.44597 9.6482 7.63711 9.84023L10.3045 12.5199L10.3053 12.5204C10.3207 12.5357 10.337 12.5501 10.3543 12.5633L10.3596 12.5677C10.3669 12.5732 10.3743 12.5784 10.3819 12.5829C10.3915 12.5893 10.4014 12.5954 10.4115 12.6015C10.4226 12.6077 10.4339 12.6136 10.4452 12.6184C10.4524 12.6217 10.4597 12.6249 10.4672 12.6284C10.481 12.634 10.495 12.6389 10.509 12.6428C10.5164 12.6451 10.5239 12.6472 10.5313 12.6494C10.5454 12.6529 10.5596 12.6559 10.5737 12.6578C10.5993 12.6619 10.6255 12.6641 10.6522 12.6641M10.9999 12.5199C10.9838 12.5357 10.9674 12.5501 10.9501 12.5633L10.9999 12.5199ZM10.9999 12.5199C10.9758 12.5441 10.9498 12.5653 10.9225 12.5834C10.9129 12.5893 10.903 12.5954 10.8928 12.6011C10.8834 12.6068 10.8738 12.6118 10.8641 12.6164C10.8545 12.6207 10.8448 12.6249 10.8349 12.6289C10.8224 12.6343 10.8095 12.6388 10.7965 12.6428C10.7889 12.6449 10.781 12.6471 10.7731 12.6491C10.7589 12.6529 10.7447 12.6559 10.7305 12.6582C10.7238 12.6589 10.7168 12.6599 10.7097 12.6607C10.6936 12.6629 10.6776 12.664 10.6616 12.6643C10.6585 12.664 10.6554 12.6641 10.6522 12.6641M10.6522 12.6641L10.6427 12.6643C10.6267 12.664 10.6107 12.6629 10.5948 12.6611L10.6522 12.6641ZM4.15786 1.00027L4.16742 1C4.1834 1.00031 4.19938 1.00139 4.21528 1.00325L4.15786 1.00027ZM4.15786 1.00027C4.18459 1.00027 4.21081 1.00241 4.23638 1.00652C4.25036 1.00843 4.2644 1.01132 4.27831 1.01483C4.28649 1.01723 4.29483 1.01957 4.30308 1.02212C4.31596 1.02575 4.32843 1.03017 4.34073 1.0351C4.34963 1.03906 4.35864 1.043 4.36751 1.04719C4.37804 1.05175 4.38841 1.05711 4.39863 1.06286C4.40737 1.06825 4.41603 1.07349 4.4245 1.07899C4.43323 1.08418 4.44196 1.09025 4.45054 1.09664L4.50563 1.1444L7.17298 3.8241C7.36412 4.01613 7.3634 4.32675 7.17138 4.5179C6.9968 4.69166 6.72422 4.70687 6.53249 4.56392L6.47758 4.51629L4.64801 2.67781L4.64845 10.3985C4.64845 10.6694 4.42881 10.8891 4.15786 10.8891C3.9095 10.8891 3.70424 10.7045 3.67175 10.4651L3.66727 10.3985L3.66684 2.67847L1.83829 4.51629C1.66452 4.69087 1.39201 4.70733 1.19963 4.56527L1.14449 4.5179C0.969921 4.34413 0.953457 4.07162 1.09552 3.87924L1.14289 3.8241L3.81024 1.1444M4.15786 1.00027C4.15454 1.00027 4.15123 1.00031 4.1478 1.00001C4.13225 1.00033 4.11671 1.00139 4.10157 1.00347C4.09361 1.00438 4.08572 1.00547 4.07766 1.00648C4.06427 1.00869 4.05094 1.01146 4.03776 1.01508C4.02958 1.01714 4.02148 1.0194 4.01357 1.02153C4.00056 1.02552 3.98769 1.03006 3.97514 1.03543C3.96527 1.03939 3.95555 1.04367 3.94597 1.04791C3.93627 1.05256 3.92669 1.05754 3.91726 1.06322C3.90711 1.06895 3.89718 1.07502 3.88763 1.08097C3.86026 1.09908 3.8343 1.12022 3.81024 1.1444M3.81024 1.1444L3.83912 1.11791C3.84591 1.11211 3.85285 1.10649 3.85995 1.10105L3.81024 1.1444Z" stroke="#666666" stroke-width="0.5"/>
</svg>