<svg xmlns="http://www.w3.org/2000/svg" width="17" height="16" viewBox="0 0 17 16" fill="none">
<path d="M8.5 14.5C12.0899 14.5 15 11.5899 15 8C15 4.41015 12.0899 1.5 8.5 1.5C4.91015 1.5 2 4.41015 2 8C2 11.5899 4.91015 14.5 8.5 14.5Z" fill="#667085" fill-opacity="0.5"/>
<path d="M8.5 15.25C12.5041 15.25 15.75 12.0041 15.75 8C15.75 3.99594 12.5041 0.75 8.5 0.75C4.49594 0.75 1.25 3.99594 1.25 8C1.25 12.0041 4.49594 15.25 8.5 15.25Z" stroke="#667085" stroke-opacity="0.5" stroke-width="1.5" stroke-linecap="round" stroke-linejoin="round"/>
<path d="M7 10.9995H10H7Z" fill="#667085" fill-opacity="0.5"/>
<path d="M7 10.9995H10" stroke="white" stroke-width="1.5" stroke-linecap="round" stroke-linejoin="round"/>
<path d="M8.5 10.9995V7.49951H7.5" fill="#667085" fill-opacity="0.5"/>
<path d="M8.5 10.9995V7.49951H7.5" stroke="white" stroke-width="1.5" stroke-linecap="round" stroke-linejoin="round"/>
<path d="M8.5 5.25C8.36193 5.25 8.25 5.13807 8.25 5C8.25 4.86193 8.36193 4.75 8.5 4.75" fill="#667085" fill-opacity="0.5"/>
<path d="M8.5 5.25C8.36193 5.25 8.25 5.13807 8.25 5C8.25 4.86193 8.36193 4.75 8.5 4.75" stroke="white" stroke-width="1.5" stroke-linecap="round" stroke-linejoin="round"/>
<path d="M8.5 5.25C8.63807 5.25 8.75 5.13807 8.75 5C8.75 4.86193 8.63807 4.75 8.5 4.75" fill="#667085" fill-opacity="0.5"/>
<path d="M8.5 5.25C8.63807 5.25 8.75 5.13807 8.75 5C8.75 4.86193 8.63807 4.75 8.5 4.75" stroke="white" stroke-width="1.5" stroke-linecap="round" stroke-linejoin="round"/>
</svg>