<svg xmlns="http://www.w3.org/2000/svg" width="100%" height="100%" viewBox="0 0 26 17" fill="none">
  <path fill-rule="evenodd" clip-rule="evenodd" d="M7.47523 0.0878685C7.24143 0.00983329 6.99352 -0.0166798 6.74851 0.0101501C6.50351 0.03698 6.26721 0.116517 6.05585 0.2433L2.53729 2.35443C2.28437 2.50619 2.07506 2.72085 1.92973 2.97752C1.78441 3.23419 1.70803 3.52412 1.70804 3.81908V15.292H0.854019C0.627519 15.292 0.410296 15.3819 0.250136 15.5421C0.0899767 15.7023 0 15.9195 0 16.146C0 16.3725 0.0899767 16.5897 0.250136 16.7499C0.410296 16.91 0.627519 17 0.854019 17H24.3961C24.6226 17 24.8398 16.91 25 16.7499C25.1602 16.5897 25.2501 16.3725 25.2501 16.146C25.2501 15.9195 25.1602 15.7023 25 15.5421C24.8398 15.3819 24.6226 15.292 24.3961 15.292H15.3723V3.95059C15.3721 3.59236 15.2593 3.24327 15.0498 2.95269C14.8403 2.66211 14.5447 2.44476 14.2049 2.33138L7.47523 0.0878685ZM13.6643 15.292V3.95059L7.68617 1.95902V15.292H13.6643ZM5.97813 2.28184L3.41607 3.81908V15.292H5.97813V2.28184Z" fill="#DEDEE0"/>
  <path d="M19.1609 8.00478C19.2756 7.99215 19.3917 8.00463 19.5012 8.04135L22.6532 9.09712C22.8124 9.15047 22.9508 9.25276 23.049 9.3895C23.1471 9.52624 23.1999 9.69052 23.2 9.8591V16H22.4V9.8591L19.6 8.92189V16H18.8V9.07381L17.6 9.79721V16H16.8V9.79721C16.8 9.65841 16.8358 9.52197 16.9039 9.40119C16.972 9.2804 17.07 9.17938 17.1884 9.10797L18.8364 8.11449C18.9354 8.05483 19.0461 8.0174 19.1609 8.00478Z" fill="#D9D9DE" fill-opacity="0.870588" stroke="#DEDEE0" stroke-width="0.5"/>
</svg>