<svg xmlns="http://www.w3.org/2000/svg" width="100%" height="100%" viewBox="0 0 201 38" fill="none">
  <path d="M41.187 23.4061C41.187 21.2783 41.5728 19.3522 42.343 17.6279C43.1131 15.9035 44.1674 14.428 45.5074 13.197C46.846 11.9689 48.4245 11.0235 50.2402 10.3624C52.0558 9.70266 53.9907 9.37134 56.0464 9.37134C58.1021 9.37134 60.037 9.70119 61.8526 10.3624C63.6683 11.0221 65.2453 11.9674 66.5853 13.197C67.9239 14.4266 68.9797 15.9035 69.7498 17.6279C70.52 19.3522 70.9058 21.2783 70.9058 23.4061C70.9058 25.5339 70.52 27.46 69.7498 29.1843C68.9797 30.9087 67.9239 32.3856 66.5853 33.6137C65.2453 34.8433 63.6683 35.7872 61.8526 36.4484C60.037 37.1095 58.1006 37.4394 56.0464 37.4394C53.9922 37.4394 52.0558 37.1095 50.2402 36.4484C48.4245 35.7887 46.846 34.8433 45.5074 33.6137C44.1674 32.3856 43.1131 30.9087 42.343 29.1843C41.5728 27.46 41.187 25.5339 41.187 23.4061ZM49.4421 23.4061C49.4421 25.4249 50.0193 27.0565 51.1752 28.3038C52.3312 29.551 53.9539 30.1754 56.0464 30.1754C58.1389 30.1754 59.7616 29.5525 60.9176 28.3038C62.0735 27.0565 62.6507 25.4235 62.6507 23.4061C62.6507 21.3887 62.0735 19.7557 60.9176 18.5084C59.7616 17.2612 58.1389 16.6368 56.0464 16.6368C53.9539 16.6368 52.3312 17.2612 51.1752 18.5084C50.0193 19.7557 49.4421 21.3887 49.4421 23.4061Z" fill="white"/>
  <path d="M73.9536 10.034H81.8788V13.6667H81.9893C82.2455 13.1528 82.6121 12.6404 83.0892 12.1264C83.5663 11.6125 84.1347 11.1546 84.7959 10.7511C85.4556 10.3476 86.2081 10.0178 87.0518 9.76007C87.8956 9.50385 88.813 9.37427 89.804 9.37427C91.895 9.37427 93.5825 9.69528 94.8666 10.3373C96.1507 10.9793 97.1505 11.8702 97.8662 13.007C98.5818 14.1453 99.0678 15.4838 99.324 17.0241C99.5802 18.5644 99.7098 20.2342 99.7098 22.0322V36.7811H91.4547V23.6829C91.4547 22.9128 91.4268 22.1147 91.3723 21.2886C91.3178 20.4625 91.1529 19.7027 90.8775 19.0047C90.6021 18.3082 90.1795 17.7383 89.6111 17.298C89.0412 16.8577 88.2255 16.6383 87.1623 16.6383C86.0991 16.6383 85.2362 16.8312 84.575 17.2155C83.9153 17.6013 83.4103 18.1153 83.0613 18.7558C82.7123 19.3978 82.484 20.1223 82.3736 20.9293C82.2632 21.7362 82.2087 22.58 82.2087 23.4606V36.7782H73.9536V10.034Z" fill="white"/>
  <path d="M122.47 16.6367H115.206V25.5515C115.206 26.2862 115.242 26.9548 115.316 27.56C115.39 28.1652 115.554 28.688 115.811 29.1282C116.067 29.5685 116.462 29.9087 116.993 30.1458C117.525 30.3843 118.232 30.5036 119.112 30.5036C119.552 30.5036 120.13 30.4579 120.845 30.3667C121.561 30.2754 122.101 30.0633 122.47 29.7335V36.6132C121.552 36.943 120.598 37.1639 119.608 37.2729C118.617 37.3833 117.646 37.4378 116.691 37.4378C115.297 37.4378 114.013 37.2905 112.839 36.9975C111.664 36.7045 110.638 36.2362 109.757 35.5942C108.877 34.9521 108.189 34.1172 107.694 33.0908C107.199 32.0645 106.952 30.8158 106.952 29.3491V16.6367H101.668V10.0324H106.952V2.10864H115.207V10.0338H122.471V16.6382L122.47 16.6367Z" fill="white"/>
  <path d="M143.408 33.4223H143.297C142.38 34.8536 141.159 35.88 139.638 36.5043C138.115 37.1272 136.51 37.4394 134.823 37.4394C133.575 37.4394 132.374 37.2641 131.218 36.9166C130.062 36.5691 129.044 36.0449 128.164 35.3484C127.283 34.6519 126.585 33.7889 126.073 32.7611C125.559 31.7348 125.303 30.542 125.303 29.1843C125.303 27.644 125.587 26.3409 126.155 25.2777C126.724 24.2145 127.494 23.3339 128.467 22.6359C129.439 21.9394 130.549 21.3975 131.797 21.0132C133.044 20.6274 134.337 20.3447 135.677 20.1606C137.015 19.978 138.354 19.8676 139.694 19.8308C141.032 19.7939 142.271 19.7763 143.409 19.7763C143.409 18.3096 142.886 17.1449 141.841 16.2819C140.795 15.4205 139.557 14.9891 138.126 14.9891C136.694 14.9891 135.53 15.2733 134.41 15.8417C133.291 16.4115 132.291 17.1905 131.411 18.18L127.008 13.6667C128.548 12.2354 130.346 11.1634 132.402 10.4477C134.456 9.73209 136.584 9.37427 138.785 9.37427C141.206 9.37427 143.197 9.67761 144.756 10.2828C146.316 10.888 147.563 11.7774 148.498 12.9525C149.433 14.1276 150.084 15.5663 150.452 17.273C150.819 18.9796 151.003 20.9514 151.003 23.1896V36.7826H143.409V33.4252L143.408 33.4223ZM141.371 25.0568C140.747 25.0568 139.968 25.0848 139.033 25.1393C138.098 25.1937 137.198 25.3513 136.336 25.6075C135.474 25.8652 134.74 26.2496 134.135 26.7635C133.53 27.2774 133.226 27.993 133.226 28.9104C133.226 29.9015 133.648 30.6348 134.493 31.1119C135.337 31.589 136.217 31.8275 137.135 31.8275C137.942 31.8275 138.72 31.7171 139.473 31.4977C140.224 31.2768 140.894 30.9661 141.482 30.5626C142.068 30.1591 142.536 29.6452 142.885 29.0223C143.232 28.3995 143.408 27.6661 143.408 26.8209V25.0597H141.371V25.0568Z" fill="white"/>
  <path d="M172.163 18.6734C171.76 18.0873 171.191 17.5999 170.457 17.2155C169.722 16.8297 168.934 16.6383 168.09 16.6383C165.999 16.6383 164.375 17.2627 163.219 18.5099C162.063 19.7571 161.486 21.3902 161.486 23.4076C161.486 25.4249 162.063 27.058 163.219 28.3052C164.375 29.5525 165.998 30.1768 168.09 30.1768C169.006 30.1768 169.797 29.9751 170.457 29.5716C171.118 29.1681 171.686 28.691 172.163 28.1403L177.612 33.8641C176.328 35.1849 174.814 36.1112 173.072 36.6427C171.328 37.1743 169.669 37.4409 168.092 37.4409C166.036 37.4409 164.101 37.111 162.286 36.4498C160.47 35.7901 158.891 34.8448 157.553 33.6152C156.213 32.3871 155.158 30.9101 154.388 29.1858C153.618 27.4615 153.232 25.5354 153.232 23.4076C153.232 21.2797 153.618 19.3537 154.388 17.6293C155.158 15.905 156.213 14.4295 157.553 13.1985C158.891 11.9704 160.47 11.025 162.286 10.3638C164.101 9.70412 166.036 9.3728 168.092 9.3728C169.669 9.3728 171.33 9.63933 173.072 10.1709C174.814 10.7025 176.328 11.6287 177.612 12.9496L172.163 18.6734Z" fill="white"/>
  <path d="M201 16.6367H193.736V25.5515C193.736 26.2862 193.771 26.9548 193.846 27.56C193.92 28.1652 194.085 28.688 194.341 29.1282C194.597 29.5685 194.992 29.9087 195.523 30.1458C196.055 30.3843 196.762 30.5036 197.642 30.5036C198.083 30.5036 198.66 30.4579 199.376 30.3667C200.091 30.2754 200.632 30.0633 200.998 29.7335V36.6132C200.081 36.943 199.127 37.1639 198.137 37.2729C197.146 37.3833 196.174 37.4378 195.22 37.4378C193.826 37.4378 192.542 37.2905 191.368 36.9975C190.193 36.7045 189.167 36.2362 188.286 35.5942C187.405 34.9521 186.718 34.1172 186.223 33.0908C185.728 32.0645 185.479 30.8158 185.479 29.3491V16.6367H180.196V10.0324H185.479V2.10864H193.734V10.0338H200.998V16.6382L201 16.6367Z" fill="white"/>
  <path d="M41.611 36.7796L32.6462 31.3459C35.2894 28.8073 37.1683 25.5338 37.9267 21.8746C38.1741 20.7422 38.2992 19.5803 38.2992 18.3891C38.2992 18.3611 38.2992 18.3346 38.2992 18.3081C38.2992 18.2845 38.2992 18.2609 38.2992 18.2359H38.2978C38.2801 15.5957 37.7824 13.1719 36.8046 10.9675C35.8077 8.72184 34.4486 6.7884 32.7272 5.16714C31.0043 3.54587 28.9781 2.27949 26.6485 1.36799C24.3175 0.456487 21.8171 0 19.1489 0C16.4806 0 13.9818 0.447652 11.6507 1.34295C9.32117 2.23826 7.29348 3.49581 5.57208 5.11707C3.84922 6.73834 2.49006 8.68061 1.49315 10.9424C0.497718 13.2057 0 15.6884 0 18.3891C0 21.2944 0.488883 23.8772 1.46959 26.1405C2.44883 28.4038 3.80062 30.3284 5.52202 31.9158C7.24489 33.5032 9.29613 34.7107 11.6772 35.5382C13.9287 36.3216 16.3702 36.7281 18.9987 36.7708L18.9899 36.7796C19.0841 36.7796 19.1769 36.7781 19.2696 36.7766C19.3315 36.7766 19.3904 36.7796 19.4522 36.7796H41.6095H41.611ZM11.424 26.2671C10.427 25.2717 9.64218 24.0981 9.06789 22.7463C8.4936 21.396 8.20646 19.9441 8.20646 18.3891C8.20646 16.8341 8.4936 15.3836 9.06789 14.0318C9.64218 12.6815 10.427 11.5079 11.424 10.511C12.4194 9.51554 13.5768 8.73068 14.8947 8.15492C16.2126 7.58063 17.6307 7.29348 19.1504 7.29348C20.67 7.29348 22.0881 7.58063 23.406 8.15492C24.7239 8.72921 25.8799 9.51554 26.8768 10.511C27.8722 11.5079 28.6571 12.6815 29.2328 14.0318C29.8071 15.3836 30.0943 16.8355 30.0943 18.3891C30.0943 19.9426 29.8071 21.396 29.2328 22.7463C28.6585 24.0981 27.8737 25.2717 26.8768 26.2671C25.8799 27.264 24.7239 28.0489 23.406 28.6232C22.0895 29.1975 20.67 29.4846 19.1504 29.4846C17.6307 29.4846 16.2126 29.1975 14.8947 28.6232C13.5783 28.0489 12.4209 27.264 11.424 26.2671Z" fill="white"/>
</svg>