<svg xmlns="http://www.w3.org/2000/svg" width="100%" height="100%" viewBox="0 0 19 19" fill="none">
  <path d="M16.9054 12.0182L18.0294 13.189C18.5541 13.7355 18.5053 14.6122 17.9233 15.0972C17.6886 15.2929 17.3926 15.4 17.087 15.4H13.24L12.9531 16.1173C12.6717 16.8208 12.1737 17.4165 11.5312 17.818C10.3741 18.5412 8.9059 18.5412 7.74882 17.818C7.10632 17.4165 6.60832 16.8208 6.32694 16.1173L6.04 15.4H2.36705C1.96562 15.4 1.59363 15.1894 1.38709 14.8452C1.1522 14.4537 1.17285 13.9599 1.43962 13.5894L2.44973 12.1865C2.91153 11.5451 3.16 10.7748 3.16 9.98442V9.1C3.16 7.73463 3.58925 6.40382 4.38704 5.29578L4.66325 4.91215C5.09575 4.31146 5.65549 3.81362 6.30254 3.45414L6.93104 3.10498C7.29068 2.90518 7.59143 2.61429 7.8031 2.2615L7.84591 2.19015C8.07591 1.80682 8.42264 1.50723 8.83529 1.3353C9.3503 1.12071 9.9297 1.12071 10.4447 1.3353C10.8574 1.50723 11.2041 1.80682 11.4341 2.19015L11.4769 2.2615C11.6886 2.61429 11.9893 2.90518 12.349 3.10498L12.9775 3.45414C13.6245 3.81362 14.1842 4.31146 14.6168 4.91215L15.028 5.48331C15.738 6.46942 16.12 7.6538 16.12 8.86892V10.0658C16.12 10.7936 16.4014 11.4932 16.9054 12.0182Z" fill="#000000"/>
  <path d="M6.04 15.4H2.36705C1.96562 15.4 1.59363 15.1894 1.38709 14.8452V14.8452C1.1522 14.4537 1.17285 13.9599 1.43962 13.5894L2.44973 12.1865C2.91153 11.5451 3.16 10.7748 3.16 9.98442V9.1C3.16 7.73463 3.58925 6.40382 4.38704 5.29578L4.66325 4.91215C5.09575 4.31146 5.65549 3.81362 6.30254 3.45414L6.93104 3.10498C7.29068 2.90518 7.59143 2.61429 7.8031 2.2615L7.84591 2.19015C8.07591 1.80682 8.42264 1.50723 8.83529 1.3353V1.3353C9.3503 1.12071 9.9297 1.12071 10.4447 1.3353V1.3353C10.8574 1.50723 11.2041 1.80682 11.4341 2.19015L11.4769 2.2615C11.6886 2.61429 11.9893 2.90518 12.349 3.10498L12.9775 3.45414C13.6245 3.81362 14.1843 4.31146 14.6168 4.91215L15.028 5.48331C15.738 6.46942 16.12 7.6538 16.12 8.86892V10.0658C16.12 10.7936 16.4014 11.4932 16.9054 12.0182L18.0294 13.189C18.5541 13.7355 18.5053 14.6122 17.9233 15.0972V15.0972C17.6886 15.2929 17.3926 15.4 17.087 15.4H13.24M6.04 15.4L6.32694 16.1173C6.60832 16.8208 7.10632 17.4165 7.74882 17.818V17.818C8.9059 18.5412 10.3741 18.5412 11.5312 17.818V17.818C12.1737 17.4165 12.6717 16.8208 12.9531 16.1173L13.24 15.4M6.04 15.4H13.24" stroke="black"/>
</svg>