<svg xmlns="http://www.w3.org/2000/svg" width="100%" height="100%" viewBox="0 0 22 22" fill="none">
  <path d="M9.46116 4.84668H6.38419C5.53451 4.84668 4.8457 5.53549 4.8457 6.38517V9.46214C4.8457 10.3118 5.53451 11.0006 6.38419 11.0006H9.46116C10.3108 11.0006 10.9996 10.3118 10.9996 9.46214V6.38517C10.9996 5.53549 10.3108 4.84668 9.46116 4.84668Z" stroke="#666666" stroke-width="1.5" stroke-linecap="round" stroke-linejoin="round"/>
  <path d="M4.84621 1H2.53849C2.13045 1 1.73913 1.16209 1.45061 1.45061C1.16209 1.73913 1 2.13045 1 2.53849V4.84621" stroke="#666666" stroke-width="1.5" stroke-linecap="round" stroke-linejoin="round"/>
  <path d="M17.1533 1H19.461C19.8691 1 20.2604 1.16209 20.5489 1.45061C20.8374 1.73913 20.9995 2.13045 20.9995 2.53849V4.84621" stroke="#666666" stroke-width="1.5" stroke-linecap="round" stroke-linejoin="round"/>
  <path d="M4.84621 20.9995H2.53849C2.13045 20.9995 1.73913 20.8374 1.45061 20.5489C1.16209 20.2604 1 19.8691 1 19.461V17.1533" stroke="#666666" stroke-width="1.5" stroke-linecap="round" stroke-linejoin="round"/>
  <path d="M17.1543 20.9995H19.462C19.87 20.9995 20.2614 20.8374 20.5499 20.5489C20.8384 20.2604 21.0005 19.8691 21.0005 19.461V17.1533" stroke="#666666" stroke-width="1.5" stroke-linecap="round" stroke-linejoin="round"/>
  <path d="M4.8457 14.8467V17.1544H7.15343" stroke="#666666" stroke-width="1.5" stroke-linecap="round" stroke-linejoin="round"/>
  <path d="M11.0001 17.1544V14.8467H8.69238" stroke="#666666" stroke-width="1.5" stroke-linecap="round" stroke-linejoin="round"/>
  <path d="M17.1544 7.15441H14.8467V4.84668" stroke="#666666" stroke-width="1.5" stroke-linecap="round" stroke-linejoin="round"/>
  <path d="M17.1544 12.5392V10.2314H14.8467" stroke="#666666" stroke-width="1.5" stroke-linecap="round" stroke-linejoin="round"/>
  <path d="M14.8467 14.8467V17.1544H17.1544" stroke="#666666" stroke-width="1.5" stroke-linecap="round" stroke-linejoin="round"/>
</svg>