<svg xmlns="http://www.w3.org/2000/svg" width="100%" height="100%" viewBox="0 0 19 18" fill="none">
  <path d="M7.10526 11.8565C10.958 11.8565 14.2105 12.4904 14.2105 14.9388C14.2105 17.3872 10.9372 18 7.10526 18C3.25251 18 0 17.3651 0 14.9177C0 12.4693 3.27242 11.8565 7.10526 11.8565ZM16.1043 4.73684C16.5744 4.73684 16.9559 5.12474 16.9559 5.60048V6.71482H18.0957C18.5649 6.71482 18.9474 7.10271 18.9474 7.57845C18.9474 8.05419 18.5649 8.44209 18.0957 8.44209H16.9559V9.55742C16.9559 10.0332 16.5744 10.4211 16.1043 10.4211C15.6351 10.4211 15.2526 10.0332 15.2526 9.55742V8.44209H14.1148C13.6447 8.44209 13.2632 8.05419 13.2632 7.57845C13.2632 7.10271 13.6447 6.71482 14.1148 6.71482H15.2526V5.60048C15.2526 5.12474 15.6351 4.73684 16.1043 4.73684ZM7.10526 0C9.71486 0 11.8067 2.11891 11.8067 4.76227C11.8067 7.40563 9.71486 9.52454 7.10526 9.52454C4.49567 9.52454 2.40382 7.40563 2.40382 4.76227C2.40382 2.11891 4.49567 0 7.10526 0Z" fill="black"/>
</svg>