<svg xmlns="http://www.w3.org/2000/svg" width="100%" height="100%" viewBox="0 0 19 18" fill="none">
  <path fill-rule="evenodd" clip-rule="evenodd" d="M7.1629 11.3268L7.2712 11.3268L7.51124 11.3275C9.54994 11.3384 14.3258 11.5237 14.3258 14.6741C14.3258 17.595 10.4034 17.9853 7.35241 18L6.81455 17.9998C4.77586 17.9889 0 17.8036 0 14.6541C0 11.6714 4.0875 11.3268 7.1629 11.3268ZM7.1629 12.6908C3.31547 12.6908 1.36401 13.3519 1.36401 14.6541C1.36401 15.969 3.31547 16.6364 7.1629 16.6364C11.0103 16.6364 12.9618 15.9753 12.9618 14.6741C12.9618 13.3573 11.0103 12.6908 7.1629 12.6908ZM15.6444 5.38213C16.0209 5.38213 16.3264 5.68767 16.3264 6.06414L16.3263 7.20473L17.5049 7.20545C17.8813 7.20545 18.1869 7.51099 18.1869 7.88746C18.1869 8.26393 17.8813 8.56947 17.5049 8.56947L16.3263 8.56874L16.3264 9.71151C16.3264 10.088 16.0209 10.3935 15.6444 10.3935C15.268 10.3935 14.9624 10.088 14.9624 9.71151L14.9623 8.56874L13.7856 8.56947C13.4092 8.56947 13.1036 8.26393 13.1036 7.88746C13.1036 7.51099 13.4092 7.20545 13.7856 7.20545L14.9623 7.20473L14.9624 6.06414C14.9624 5.68767 15.268 5.38213 15.6444 5.38213ZM7.1629 0C9.83 0 11.9988 2.16969 11.9988 4.83589C11.9988 7.50208 9.83 9.67177 7.1629 9.67177H7.13471C5.84435 9.66723 4.63492 9.16072 3.72831 8.24774C2.82078 7.33385 2.32337 6.12079 2.32789 4.83316C2.32789 2.16969 4.4967 0 7.1629 0ZM7.1629 1.36401C5.24964 1.36401 3.69191 2.92172 3.69191 4.83589C3.6883 5.76251 4.04476 6.63093 4.69494 7.28657C5.34603 7.94129 6.21354 8.30412 7.13743 8.30776L7.1629 8.98158V8.30776C9.07706 8.30776 10.6348 6.75006 10.6348 4.83589C10.6348 2.92172 9.07706 1.36401 7.1629 1.36401Z" fill="#666666"/>
</svg>