<svg xmlns="http://www.w3.org/2000/svg" width="100%" height="100%" viewBox="0 0 18 18" fill="none">
  <path fill-rule="evenodd" clip-rule="evenodd" d="M3.92308 10.1538C7.67908 10.1538 7.84615 11.4277 7.84615 14.0769C7.84615 15.4043 7.84615 16.3486 7.28862 17.04C6.64708 17.8366 5.47938 18 3.92308 18C2.36677 18 1.19908 17.8366 0.557538 17.04C0 16.3486 0 15.4052 0 14.1L0.692308 14.0769H0C0 11.4277 0.167077 10.1538 3.92308 10.1538ZM14.0769 10.1538C17.8329 10.1538 18 11.4277 18 14.0769C18 15.4043 18 16.3486 17.4425 17.04C16.8009 17.8366 15.6332 18 14.0769 18C12.5206 18 11.3529 17.8366 10.7114 17.04C10.1538 16.3486 10.1538 15.4052 10.1538 14.1L10.8462 14.0769H10.1538C10.1538 11.4277 10.3209 10.1538 14.0769 10.1538ZM4.11338 11.5389L3.92308 11.5385C1.51479 11.5385 1.39129 11.7113 1.38496 13.7327L1.38534 14.5202C1.38972 15.3241 1.42035 15.9049 1.63477 16.1723C1.87938 16.4751 2.60585 16.6154 3.92308 16.6154C5.24031 16.6154 5.96677 16.4742 6.21138 16.1714C6.46154 15.8603 6.46154 15.1218 6.46154 14.0991C6.46154 11.7912 6.46154 11.5497 4.11338 11.5389ZM14.2672 11.5389L14.0769 11.5385C11.6686 11.5385 11.5451 11.7113 11.5388 13.7327L11.5392 14.5202C11.5436 15.3241 11.5742 15.9049 11.7886 16.1723C12.0332 16.4751 12.7597 16.6154 14.0769 16.6154C15.3942 16.6154 16.1206 16.4742 16.3652 16.1714C16.6154 15.8603 16.6154 15.1218 16.6154 14.0991C16.6154 11.7912 16.6154 11.5497 14.2672 11.5389ZM3.92308 0C7.67908 0 7.84615 1.27385 7.84615 3.92308C7.84615 5.25046 7.84615 6.19477 7.28862 6.88615C6.64708 7.68277 5.47938 7.84615 3.92308 7.84615C2.36677 7.84615 1.19908 7.68277 0.557538 6.88615C0 6.19477 0 5.25138 0 3.94615L0.692308 3.92308H0C0 1.27385 0.167077 0 3.92308 0ZM14.0769 0C17.8329 0 18 1.27385 18 3.92308C18 5.25046 18 6.19477 17.4425 6.88615C16.8009 7.68277 15.6332 7.84615 14.0769 7.84615C12.5206 7.84615 11.3529 7.68277 10.7114 6.88615C10.1538 6.19477 10.1538 5.25138 10.1538 3.94615L10.8462 3.92308H10.1538C10.1538 1.27385 10.3209 0 14.0769 0ZM4.11338 1.38503L3.92308 1.38462C1.51479 1.38462 1.39129 1.55743 1.38496 3.57882L1.38534 4.36632C1.38972 5.17029 1.42035 5.75103 1.63477 6.01846C1.87938 6.32123 2.60585 6.46154 3.92308 6.46154C5.24031 6.46154 5.96677 6.32031 6.21138 6.01754C6.46154 5.70646 6.46154 4.968 6.46154 3.94523C6.46154 1.63735 6.46154 1.39589 4.11338 1.38503ZM14.2672 1.38503L14.0769 1.38462C11.6686 1.38462 11.5451 1.55743 11.5388 3.57882L11.5392 4.36632C11.5436 5.17029 11.5742 5.75103 11.7886 6.01846C12.0332 6.32123 12.7597 6.46154 14.0769 6.46154C15.3942 6.46154 16.1206 6.32031 16.3652 6.01754C16.6154 5.70646 16.6154 4.968 16.6154 3.94523C16.6154 1.63735 16.6154 1.39589 14.2672 1.38503Z" fill="#666666"/>
</svg>