<svg xmlns="http://www.w3.org/2000/svg" width="100%" height="100%" viewBox="0 0 17 17" fill="none">
  <path d="M2.16508 2.40625C1.85614 2.40625 1.55987 2.52898 1.34142 2.74742C1.12297 2.96587 1.00024 3.26215 1.00024 3.57109V14.637C1.00024 14.9459 1.12297 15.2423 1.34142 15.4607C1.55987 15.6791 1.85614 15.8019 2.16508 15.8019H14.9783C15.2872 15.8019 15.5835 15.6791 15.8019 15.4607C16.0203 15.2423 16.1431 14.9459 16.1431 14.637V3.57109C16.1431 3.26215 16.0203 2.96587 15.8019 2.74742C15.5835 2.52898 15.2872 2.40625 14.9783 2.40625H12.6486" stroke="#989CA5" stroke-linecap="round" stroke-linejoin="round"/>
  <path d="M1.00024 6.4834H16.1431" stroke="#989CA5" stroke-linecap="round" stroke-linejoin="round"/>
  <path d="M4.49487 0.65918V4.15369" stroke="#989CA5" stroke-linecap="round" stroke-linejoin="round"/>
  <path d="M12.6487 0.65918V4.15369" stroke="#989CA5" stroke-linecap="round" stroke-linejoin="round"/>
  <path d="M4.49487 2.40625H10.319" stroke="#989CA5" stroke-linecap="round" stroke-linejoin="round"/>
</svg>