<svg xmlns="http://www.w3.org/2000/svg" width="100%" height="100%" viewBox="0 0 27 29" fill="none">
<path fill-rule="evenodd" clip-rule="evenodd" d="M18.6051 0C19.1635 0 19.6167 0.453207 19.6167 1.01162L19.6173 2.15518C21.5868 2.2902 23.2225 2.96479 24.3801 4.12486C25.644 5.39411 26.3089 7.21908 26.3023 9.40823V21.7136C26.3023 26.2079 23.4481 29 18.8553 29H7.4469C2.85413 29 0 26.1688 0 21.6111V9.40553C0 5.16642 2.54532 2.44535 6.69652 2.15564L6.69735 1.01162C6.69735 0.453207 7.15056 0 7.70897 0C8.26739 0 8.7206 0.453207 8.7206 1.01162L8.72019 2.1298H17.5928L17.5935 1.01162C17.5935 0.453207 18.0467 0 18.6051 0ZM24.279 12.01H2.02325V21.6111C2.02325 25.0722 3.94938 26.9768 7.4469 26.9768H18.8553C22.3528 26.9768 24.279 25.1073 24.279 21.7136L24.279 12.01ZM17.5928 4.15305H8.72019L8.7206 5.45063C8.7206 6.00904 8.26739 6.46225 7.70897 6.46225C7.15056 6.46225 6.69735 6.00904 6.69735 5.45063L6.69663 4.18367C3.67494 4.43751 2.02325 6.26917 2.02325 9.40553V9.98674H24.279L24.279 9.40553C24.2844 7.73973 23.8365 6.44485 22.9477 5.55462C22.1674 4.77204 21.0267 4.30466 19.6179 4.18432L19.6167 5.45063C19.6167 6.00904 19.1635 6.46225 18.6051 6.46225C18.0467 6.46225 17.5935 6.00904 17.5935 5.45063L17.5928 4.15305Z" fill="white"/>
</svg>