<svg xmlns="http://www.w3.org/2000/svg" width="100%" height="100%" viewBox="0 0 16 15" fill="none">
  <path d="M12.1176 5.58824V4.5C12.1176 3.39543 11.2222 2.5 10.1176 2.5H3C1.89543 2.5 1 3.39543 1 4.5V9.97059C1 11.0752 1.89543 11.9706 3 11.9706H6.55882" stroke="#EC6C56" stroke-linecap="round"/>
  <path d="M4.08813 1.05859V2.49977" stroke="#EC6C56" stroke-linecap="round"/>
  <path d="M7.17651 5.79395H3.47063" stroke="#EC6C56" stroke-linecap="round"/>
  <path d="M5.5293 8.67627H3.47047" stroke="#EC6C56" stroke-linecap="round"/>
  <path d="M9.23535 1.05859V2.49977" stroke="#EC6C56" stroke-linecap="round"/>
  <path d="M11.706 14.2347C13.5253 14.2347 15.0001 12.7599 15.0001 10.9406C15.0001 9.12131 13.5253 7.64648 11.706 7.64648C9.88669 7.64648 8.41187 9.12131 8.41187 10.9406C8.41187 12.7599 9.88669 14.2347 11.706 14.2347Z" stroke="#EC6C56" stroke-linecap="round" stroke-linejoin="round"/>
  <path d="M11.7061 8.96387V10.9403L13.0237 11.5992" stroke="#EC6C56" stroke-linecap="round" stroke-linejoin="round"/>
</svg>