<svg xmlns="http://www.w3.org/2000/svg" width="100%" height="100%" viewBox="0 0 17 19" fill="none">
  <path fill-rule="evenodd" clip-rule="evenodd" d="M15.8684 5.72687L15.3503 4.82782C14.912 4.06709 13.9406 3.80466 13.1788 4.24115C12.8162 4.45476 12.3835 4.51537 11.9762 4.4096C11.5689 4.30383 11.2203 4.04038 11.0074 3.67734C10.8705 3.44659 10.7969 3.18376 10.7941 2.91544C10.8064 2.48525 10.6441 2.06838 10.3442 1.75979C10.0442 1.4512 9.63207 1.27717 9.2017 1.27734H8.15789C7.73627 1.27734 7.33202 1.44535 7.0346 1.7442C6.73718 2.04305 6.57111 2.4481 6.57313 2.86973C6.56064 3.74023 5.85135 4.43934 4.98075 4.43925C4.71243 4.43646 4.4496 4.36287 4.21885 4.22592C3.45708 3.78942 2.48573 4.05185 2.04742 4.81258L1.49123 5.72687C1.05345 6.48665 1.31231 7.45738 2.07028 7.8983C2.56297 8.18275 2.86648 8.70844 2.86648 9.27734C2.86648 9.84625 2.56297 10.3719 2.07028 10.6564C1.31327 11.0943 1.05413 12.0627 1.49123 12.8202L2.01694 13.7269C2.22231 14.0974 2.56688 14.3709 2.9744 14.4867C3.38193 14.6025 3.81881 14.5512 4.18837 14.344C4.55167 14.132 4.9846 14.0739 5.39093 14.1827C5.79726 14.2914 6.14331 14.558 6.35218 14.9231C6.48914 15.1538 6.56273 15.4166 6.56551 15.685C6.56551 16.5644 7.27845 17.2773 8.15789 17.2773H9.2017C10.0782 17.2773 10.7899 16.5691 10.7941 15.6926C10.792 15.2696 10.9592 14.8634 11.2582 14.5643C11.5573 14.2653 11.9635 14.0982 12.3865 14.1002C12.6541 14.1074 12.9159 14.1807 13.1484 14.3135C13.9082 14.7513 14.8789 14.4925 15.3198 13.7345L15.8684 12.8202C16.0807 12.4557 16.139 12.0217 16.0303 11.6141C15.9216 11.2065 15.6549 10.8591 15.2893 10.6488C14.9237 10.4384 14.657 10.091 14.5483 9.68345C14.4397 9.27588 14.4979 8.84181 14.7103 8.47734C14.8484 8.23626 15.0482 8.03638 15.2893 7.8983C16.0427 7.45762 16.301 6.49256 15.8684 5.73449V5.72687Z" stroke="#666666" stroke-width="1.5" stroke-linecap="round" stroke-linejoin="round"/>
  <path d="M8.68403 11.4726C9.8959 11.4726 10.8783 10.4901 10.8783 9.27827C10.8783 8.0664 9.8959 7.08398 8.68403 7.08398C7.47216 7.08398 6.48975 8.0664 6.48975 9.27827C6.48975 10.4901 7.47216 11.4726 8.68403 11.4726Z" stroke="#666666" stroke-width="1.5" stroke-linecap="round" stroke-linejoin="round"/>
</svg>