<svg xmlns="http://www.w3.org/2000/svg" width="100%" height="100%" viewBox="0 0 16 16" fill="none">
  <path d="M8.67378 0C9.27878 0 9.82655 0.336 10.129 0.832C10.2762 1.072 10.3743 1.368 10.3498 1.68C10.3334 1.92 10.407 2.16 10.5378 2.384C10.9548 3.064 11.8786 3.32 12.5981 2.936C13.4075 2.472 14.4294 2.752 14.8955 3.544L15.4432 4.488C15.9174 5.28 15.6558 6.296 14.8382 6.752C14.1433 7.16 13.898 8.064 14.315 8.752C14.4458 8.968 14.593 9.152 14.8219 9.264C15.108 9.416 15.3288 9.656 15.4841 9.896C15.7866 10.392 15.7621 11 15.4678 11.536L14.8955 12.496C14.593 13.008 14.0288 13.328 13.4484 13.328C13.1622 13.328 12.8434 13.248 12.5817 13.088C12.3692 12.952 12.1239 12.904 11.8623 12.904C11.0529 12.904 10.3743 13.568 10.3498 14.36C10.3498 15.28 9.59763 16 8.65743 16H7.54554C6.59716 16 5.845 15.28 5.845 14.36C5.82865 13.568 5.15007 12.904 4.34068 12.904C4.07088 12.904 3.82561 12.952 3.62122 13.088C3.3596 13.248 3.03258 13.328 2.7546 13.328C2.16596 13.328 1.60184 13.008 1.29934 12.496L0.735216 11.536C0.432716 11.016 0.416365 10.392 0.718865 9.896C0.849675 9.656 1.09494 9.416 1.37292 9.264C1.60184 9.152 1.749 8.968 1.88798 8.752C2.29677 8.064 2.0515 7.16 1.35657 6.752C0.547176 6.296 0.285555 5.28 0.751567 4.488L1.29934 3.544C1.77352 2.752 2.78731 2.472 3.60487 2.936C4.31615 3.32 5.24 3.064 5.65696 2.384C5.78777 2.16 5.86135 1.92 5.845 1.68C5.82865 1.368 5.91858 1.072 6.07392 0.832C6.37642 0.336 6.92419 0.016 7.52101 0H8.67378ZM8.10966 5.744C6.82608 5.744 5.78777 6.752 5.78777 8.008C5.78777 9.264 6.82608 10.264 8.10966 10.264C9.39324 10.264 10.407 9.264 10.407 8.008C10.407 6.752 9.39324 5.744 8.10966 5.744Z" fill="black"/>
</svg>