<svg width="24" height="24" viewBox="0 0 24 24" fill="none" xmlns="http://www.w3.org/2000/svg">
<path fill-rule="evenodd" clip-rule="evenodd" d="M11.47 3.46983C11.6106 3.32938 11.8013 3.25049 12 3.25049C12.1988 3.25049 12.3894 3.32938 12.53 3.46983L18.53 9.46983C18.6037 9.53849 18.6628 9.62129 18.7038 9.71329C18.7448 9.80529 18.7668 9.9046 18.7686 10.0053C18.7704 10.106 18.7518 10.206 18.7141 10.2994C18.6764 10.3928 18.6203 10.4776 18.549 10.5489C18.4778 10.6201 18.393 10.6762 18.2996 10.714C18.2062 10.7517 18.1062 10.7702 18.0055 10.7684C17.9048 10.7666 17.8055 10.7446 17.7135 10.7036C17.6215 10.6626 17.5387 10.6035 17.47 10.5298L12.75 5.80983V19.9998C12.75 20.1987 12.671 20.3895 12.5303 20.5302C12.3897 20.6708 12.1989 20.7498 12 20.7498C11.8011 20.7498 11.6103 20.6708 11.4697 20.5302C11.329 20.3895 11.25 20.1987 11.25 19.9998V5.80983L6.53 10.5298C6.46134 10.6035 6.37854 10.6626 6.28654 10.7036C6.19454 10.7446 6.09523 10.7666 5.99452 10.7684C5.89382 10.7702 5.79379 10.7517 5.7004 10.714C5.60701 10.6762 5.52218 10.6201 5.45096 10.5489C5.37974 10.4776 5.3236 10.3928 5.28588 10.2994C5.24816 10.206 5.22963 10.106 5.23141 10.0053C5.23319 9.9046 5.25523 9.80529 5.29622 9.71329C5.33721 9.62129 5.39631 9.53849 5.47 9.46983L11.47 3.46983Z" fill="currentColor"/>
</svg>
