<svg width="24" height="24" viewBox="0 0 24 24" fill="none" xmlns="http://www.w3.org/2000/svg">
<path fill-rule="evenodd" clip-rule="evenodd" d="M12.53 20.5307C12.3894 20.6711 12.1987 20.75 12 20.75C11.8012 20.75 11.6106 20.6711 11.47 20.5307L5.47 14.5307C5.39631 14.462 5.33721 14.3792 5.29622 14.2872C5.25523 14.1952 5.23318 14.0959 5.23141 13.9952C5.22963 13.8945 5.24816 13.7945 5.28588 13.7011C5.3236 13.6077 5.37974 13.5228 5.45096 13.4516C5.52218 13.3804 5.60701 13.3243 5.7004 13.2865C5.79379 13.2488 5.89382 13.2303 5.99452 13.2321C6.09522 13.2338 6.19454 13.2559 6.28654 13.2969C6.37854 13.3379 6.46134 13.397 6.53 13.4707L11.25 18.1907L11.25 4.00066C11.25 3.80175 11.329 3.61098 11.4697 3.47033C11.6103 3.32968 11.8011 3.25066 12 3.25066C12.1989 3.25066 12.3897 3.32968 12.5303 3.47033C12.671 3.61098 12.75 3.80175 12.75 4.00066L12.75 18.1907L17.47 13.4707C17.5387 13.397 17.6215 13.3379 17.7135 13.2969C17.8055 13.2559 17.9048 13.2338 18.0055 13.2321C18.1062 13.2303 18.2062 13.2488 18.2996 13.2865C18.393 13.3243 18.4778 13.3804 18.549 13.4516C18.6203 13.5228 18.6764 13.6077 18.7141 13.7011C18.7518 13.7945 18.7704 13.8945 18.7686 13.9952C18.7668 14.0959 18.7448 14.1952 18.7038 14.2872C18.6628 14.3792 18.6037 14.462 18.53 14.5307L12.53 20.5307Z" fill="currentColor"/>
</svg>
