<svg width="24" height="24" viewBox="0 0 24 24" fill="none" xmlns="http://www.w3.org/2000/svg">
<path d="M6 11C6 7.68629 8.68629 5 12 5C15.3137 5 18 7.68629 18 11V14.7061C18 14.8977 18.0567 15.0851 18.163 15.2445L18.9635 16.4453C19.4066 17.1099 18.9302 18 18.1315 18H5.86852C5.06982 18 4.59343 17.1099 5.03647 16.4453L5.83699 15.2445C5.94328 15.0851 6 14.8977 6 14.7061V11Z" stroke="currentColor" stroke-width="1.5"/>
<path d="M9 18H15C15 19.6569 13.6569 21 12 21C10.3431 21 9 19.6569 9 18Z" stroke="currentColor" stroke-width="1.5"/>
<path d="M14 5.5V5C14 3.89543 13.1046 3 12 3C10.8954 3 10 3.89543 10 5V5.5" stroke="currentColor" stroke-width="1.5"/>
</svg>
