<svg width="24" height="24" viewBox="0 0 24 24" fill="none" xmlns="http://www.w3.org/2000/svg">
<path d="M4 8.23607C4 7.47852 4.428 6.786 5.10557 6.44721L11.1056 3.44721C11.6686 3.16569 12.3314 3.16569 12.8944 3.44721L18.8944 6.44721C19.572 6.786 20 7.47852 20 8.23607V15.7639C20 16.5215 19.572 17.214 18.8944 17.5528L12.8944 20.5528C12.3314 20.8343 11.6686 20.8343 11.1056 20.5528L5.10557 17.5528C4.428 17.214 4 16.5215 4 15.7639V8.23607Z" stroke="currentColor" stroke-width="1.5"/>
<path d="M19.5 7.5L12 11M12 11V20.5M12 11L4.5 7.5" stroke="currentColor" stroke-width="1.5" stroke-linecap="square" stroke-linejoin="round"/>
</svg>
