<svg width="24" height="24" viewBox="0 0 24 24" fill="none" xmlns="http://www.w3.org/2000/svg">
<path d="M4 10C4 8.89543 4.89543 8 6 8H6.92963C7.59834 8 8.2228 7.6658 8.59373 7.1094L9.40627 5.8906C9.7772 5.3342 10.4017 5 11.0704 5H12.9296C13.5983 5 14.2228 5.3342 14.5937 5.8906L15.4063 7.1094C15.7772 7.6658 16.4017 8 17.0704 8H18C19.1046 8 20 8.89543 20 10V17C20 18.1046 19.1046 19 18 19H6C4.89543 19 4 18.1046 4 17V10Z" stroke="currentColor" stroke-width="1.5"/>
<circle cx="12" cy="13" r="3" stroke="currentColor" stroke-width="1.5"/>
</svg>
