<svg width="22" height="15" viewBox="0 0 22 15" fill="none" xmlns="http://www.w3.org/2000/svg">
<path d="M7.49993 3H5.49993C4.76048 3.00001 4.03242 3.18225 3.38015 3.53059C2.72788 3.87893 2.17151 4.38264 1.76023 4.99717C1.34896 5.61171 1.09546 6.31812 1.02216 7.05393C0.948865 7.78975 1.05802 8.53229 1.33998 9.21588C1.62194 9.89947 2.06801 10.503 2.63874 10.9732C3.20947 11.4434 3.88727 11.7657 4.6122 11.9116C5.33712 12.0574 6.08682 12.0224 6.795 11.8096C7.50317 11.5968 8.14799 11.2128 8.67243 10.6915C9.49243 9.8765 10.9999 7.5 10.9999 7.5C10.9999 7.5 12.5029 5.134 13.3159 4.32C13.839 3.79631 14.4831 3.40972 15.1913 3.19448C15.8994 2.97924 16.6497 2.942 17.3757 3.08606C18.1017 3.23011 18.781 3.55101 19.3533 4.02033C19.9256 4.48965 20.3733 5.0929 20.6568 5.77661C20.9403 6.46033 21.0507 7.20341 20.9783 7.94001C20.906 8.67661 20.653 9.38398 20.2419 9.99946C19.8308 10.6149 19.2742 11.1195 18.6215 11.4685C17.9688 11.8174 17.2401 12 16.4999 12H14.4999" stroke="currentColor" stroke-width="2" stroke-linecap="round" stroke-linejoin="round"/>
<path d="M16.5 10L14.5 12L16.5 14M5.5 1L7.5 3L5.5 5" stroke="currentColor" stroke-width="2" stroke-linecap="round" stroke-linejoin="round"/>
</svg>
