<svg width="24" height="24" viewBox="0 0 24 24" fill="none" xmlns="http://www.w3.org/2000/svg">
<path d="M17.7647 10.0854C17.7647 10.0854 17.3538 15.1815 17.1155 17.3281C17.002 18.3534 16.3687 18.9541 15.3313 18.973C13.3572 19.0086 11.3809 19.0109 9.40752 18.9693C8.4095 18.9488 7.78678 18.3405 7.67555 17.3334C7.43569 15.1679 7.0271 10.0854 7.0271 10.0854" stroke="currentColor" stroke-width="1.5" stroke-linecap="round" stroke-linejoin="round"/>
<path d="M18.8112 7.64087H5.97998" stroke="currentColor" stroke-width="1.5" stroke-linecap="round" stroke-linejoin="round"/>
<path d="M16.3385 7.63995C15.7445 7.63995 15.2331 7.22001 15.1165 6.63814L14.9327 5.71806C14.8192 5.29358 14.4348 5 13.9967 5H10.7938C10.3557 5 9.97132 5.29358 9.85782 5.71806L9.67395 6.63814C9.55743 7.22001 9.04593 7.63995 8.45197 7.63995" stroke="currentColor" stroke-width="1.5" stroke-linecap="round" stroke-linejoin="round"/>
</svg>
