<svg width="24" height="24" viewBox="0 0 24 24" fill="none" xmlns="http://www.w3.org/2000/svg">
<path d="M10 21H6C4.89543 21 4 20.1046 4 19V11.8284C4 11.298 4.21071 10.7893 4.58579 10.4142L10.5858 4.41421C11.3668 3.63317 12.6332 3.63316 13.4142 4.41421L19.4142 10.4142C19.7893 10.7893 20 11.298 20 11.8284V19C20 20.1046 19.1046 21 18 21H14M10 21V15C10 14.4477 10.4477 14 11 14H13C13.5523 14 14 14.4477 14 15V21M10 21H14" stroke="currentColor" stroke-width="1.5" stroke-linecap="round" stroke-linejoin="round"/>
</svg>
