<svg width="24" height="24" viewBox="0 0 24 24" fill="none" xmlns="http://www.w3.org/2000/svg">
<path d="M5.65197 6.56614C5.85532 5.65106 6.66695 5 7.60434 5H16.3957C17.3331 5 18.1447 5.65106 18.348 6.56614L19.9524 13.7857C19.984 13.9281 20 14.0736 20 14.2195V18C20 19.1046 19.1046 20 18 20H6C4.89543 20 4 19.1046 4 18V14.2195C4 14.0736 4.01597 13.9281 4.04763 13.7857L5.65197 6.56614Z" stroke="currentColor" stroke-width="1.5"/>
<path d="M4 15C4 14.4477 4.44772 14 5 14H6.96922C7.57502 14 8.10307 14.4123 8.25 15C8.39693 15.5877 8.92498 16 9.53078 16H14.4692C15.075 16 15.6031 15.5877 15.75 15C15.8969 14.4123 16.425 14 17.0308 14H19C19.5523 14 20 14.4477 20 15V18C20 19.1046 19.1046 20 18 20H6C4.89543 20 4 19.1046 4 18V15Z" stroke="currentColor" stroke-width="1.5"/>
</svg>
