<svg width="24" height="24" viewBox="0 0 24 24" fill="none" xmlns="http://www.w3.org/2000/svg">
<path fill-rule="evenodd" clip-rule="evenodd" d="M21 15.9232C21 18.9597 18.8685 21 15.6963 21L8.30372 21C5.13153 21 3 18.9597 3 15.9232L3 8.07684C3 5.04028 5.13154 3 8.30372 3L15.6963 3C18.8685 3 21 5.04028 21 8.07684L21 15.9232ZM19.7442 15.9232L19.7442 8.07684C19.7442 5.75609 18.156 4.25581 15.6963 4.25581L8.30372 4.25581C5.844 4.25581 4.25581 5.75609 4.25581 8.07684L4.25581 15.9232C4.25581 18.2447 5.844 19.7442 8.30372 19.7442L15.6963 19.7442C18.156 19.7442 19.7442 18.2447 19.7442 15.9232ZM14.1328 8.12464C14.1328 8.47125 13.8515 8.75255 13.5049 8.75255L7.76163 8.75255C7.41502 8.75255 7.13372 8.47125 7.13372 8.12464C7.13372 7.77804 7.41502 7.49673 7.76163 7.49673L13.5049 7.49673C13.8515 7.49673 14.1328 7.77804 14.1328 8.12464ZM16.8822 12.0319C16.8822 12.3785 16.6009 12.6598 16.2543 12.6598L7.76247 12.6598C7.41586 12.6598 7.13456 12.3785 7.13456 12.0319C7.13456 11.6853 7.41586 11.404 7.76247 11.404L16.2543 11.404C16.6009 11.404 16.8822 11.6853 16.8822 12.0319ZM11.0979 15.8749C11.0979 16.2215 10.8166 16.5028 10.47 16.5028L7.76246 16.5028C7.41586 16.5028 7.13456 16.2215 7.13456 15.8749C7.13456 15.5283 7.41586 15.247 7.76246 15.247L10.47 15.247C10.8166 15.247 11.0979 15.5283 11.0979 15.8749Z" fill="currentColor"/>
</svg>
