<svg width="30" height="24" viewBox="0 0 30 24" fill="none" xmlns="http://www.w3.org/2000/svg">
<path fill-rule="evenodd" clip-rule="evenodd" d="M15.3868 3C18.3791 3 20.8135 4.99 20.8135 7.436V8.368C20.8135 8.782 20.4025 9.118 19.896 9.118C19.3895 9.118 18.9785 8.782 18.9785 8.368V7.436C18.9785 5.816 17.3674 4.5 15.3868 4.5H9.42304C7.44491 4.5 5.835 5.816 5.835 7.436V18.565C5.835 20.184 7.44491 21.5 9.42304 21.5H15.4002C17.3723 21.5 18.9785 20.188 18.9785 18.576V17.633C18.9785 17.219 19.3895 16.883 19.896 16.883C20.4025 16.883 20.8135 17.219 20.8135 17.633V18.576C20.8135 21.016 18.384 23 15.4002 23H9.42304C6.43321 23 4 21.011 4 18.565V7.436C4 4.99 6.43321 3 9.42304 3H15.3868ZM25.2714 9.554L28.8534 12.469C28.8853 12.4949 28.9139 12.5219 28.9401 12.5504L28.8534 12.469C28.8967 12.5039 28.9352 12.5421 28.9687 12.5828C28.9834 12.6012 28.9976 12.6203 29.0108 12.6399C29.0214 12.6552 29.0313 12.6712 29.0404 12.6875C29.0481 12.7018 29.0555 12.7162 29.0624 12.7308C29.0716 12.7498 29.0797 12.7693 29.0868 12.7891C29.0921 12.8047 29.097 12.8203 29.1013 12.836C29.1068 12.8551 29.1111 12.8743 29.1145 12.8937C29.1164 12.9063 29.1183 12.9195 29.1197 12.9328C29.1225 12.9556 29.1237 12.9777 29.1237 13L29.1175 13.062L29.115 13.1017C29.1147 13.1034 29.1144 13.1051 29.1141 13.1068L29.1237 13C29.1237 13.0555 29.1162 13.1105 29.1016 13.1639C29.097 13.1797 29.0921 13.1953 29.0866 13.2107C29.0797 13.2307 29.0716 13.2502 29.0626 13.2695C29.0555 13.2838 29.0481 13.2982 29.0402 13.3123C29.0313 13.3288 29.0214 13.3448 29.0109 13.3605C28.9976 13.3797 28.9834 13.3988 28.9682 13.4172C28.9596 13.4282 28.9502 13.439 28.9404 13.4497C28.9113 13.481 28.8796 13.5104 28.8452 13.5377L25.2714 16.447C25.0928 16.593 24.858 16.666 24.6243 16.666C24.3894 16.666 24.1533 16.593 23.9747 16.445C23.6175 16.151 23.6187 15.677 23.9772 15.385L25.9833 13.75H13.4757C12.9692 13.75 12.5582 13.414 12.5582 13C12.5582 12.586 12.9692 12.25 13.4757 12.25H25.9857L23.9772 10.616C23.6187 10.324 23.6163 9.85 23.9747 9.556C24.3319 9.262 24.9118 9.262 25.2714 9.554Z" fill="currentColor"/>
</svg>
