<svg width="24" height="24" viewBox="0 0 24 24" fill="none" xmlns="http://www.w3.org/2000/svg">
<path fill-rule="evenodd" clip-rule="evenodd" d="M10.1629 14.3268L10.2712 14.3268L10.5112 14.3275C12.5499 14.3384 17.3258 14.5237 17.3258 17.6741C17.3258 20.595 13.4034 20.9853 10.3524 21L9.81455 20.9998C7.77586 20.9889 3 20.8036 3 17.6541C3 14.6714 7.0875 14.3268 10.1629 14.3268ZM10.1629 15.6908C6.31547 15.6908 4.36401 16.3519 4.36401 17.6541C4.36401 18.969 6.31547 19.6364 10.1629 19.6364C14.0103 19.6364 15.9618 18.9753 15.9618 17.6741C15.9618 16.3573 14.0103 15.6908 10.1629 15.6908ZM18.6444 8.38213C19.0209 8.38213 19.3264 8.68767 19.3264 9.06414L19.3263 10.2047L20.5049 10.2055C20.8813 10.2055 21.1869 10.511 21.1869 10.8875C21.1869 11.2639 20.8813 11.5695 20.5049 11.5695L19.3263 11.5687L19.3264 12.7115C19.3264 13.088 19.0209 13.3935 18.6444 13.3935C18.268 13.3935 17.9624 13.088 17.9624 12.7115L17.9623 11.5687L16.7856 11.5695C16.4092 11.5695 16.1036 11.2639 16.1036 10.8875C16.1036 10.511 16.4092 10.2055 16.7856 10.2055L17.9623 10.2047L17.9624 9.06414C17.9624 8.68767 18.268 8.38213 18.6444 8.38213ZM10.1629 3C12.83 3 14.9988 5.16969 14.9988 7.83589C14.9988 10.5021 12.83 12.6718 10.1629 12.6718H10.1347C8.84435 12.6672 7.63492 12.1607 6.72831 11.2477C5.82078 10.3339 5.32337 9.12079 5.32789 7.83316C5.32789 5.16969 7.4967 3 10.1629 3ZM10.1629 4.36401C8.24964 4.36401 6.69191 5.92172 6.69191 7.83589C6.6883 8.76251 7.04476 9.63093 7.69494 10.2866C8.34603 10.9413 9.21354 11.3041 10.1374 11.3078L10.1629 11.9816V11.3078C12.0771 11.3078 13.6348 9.75006 13.6348 7.83589C13.6348 5.92172 12.0771 4.36401 10.1629 4.36401Z" fill="currentColor"/>
</svg>
