<svg width="24" height="24" viewBox="0 0 24 24" fill="none" xmlns="http://www.w3.org/2000/svg">
<path d="M22 12.99C22 7.475 17.52 3 12 3C6.48 3 2 7.475 2 12.99C2 16.0275 3.38 18.765 5.54 20.6025C5.56 20.6225 5.58 20.6225 5.58 20.6425C5.76 20.7825 5.94 20.9225 6.14 21.0625C6.24 21.1225 6.32 21.2013 6.42 21.2812C8.07325 22.4003 10.0236 22.9989 12.02 23C14.0164 22.9989 15.9667 22.4003 17.62 21.2812C17.72 21.2213 17.8 21.1425 17.9 21.0812C18.08 20.9425 18.28 20.8025 18.46 20.6625C18.48 20.6425 18.5 20.6425 18.5 20.6225C20.62 18.7637 22 16.0275 22 12.99ZM12 21.7412C10.12 21.7412 8.4 21.1413 6.98 20.1425C7 19.9825 7.04 19.8237 7.08 19.6637C7.19957 19.2303 7.37433 18.8139 7.6 18.425C7.82 18.045 8.08 17.705 8.4 17.405C8.7 17.105 9.06 16.8263 9.42 16.6063C9.8 16.3863 10.2 16.2262 10.64 16.1062C11.0836 15.9874 11.5408 15.9274 12 15.9275C13.3634 15.9172 14.6769 16.4402 15.66 17.385C16.12 17.845 16.48 18.3846 16.74 19.0037C16.88 19.3638 16.98 19.7433 17.04 20.1425C15.564 21.1802 13.8043 21.7384 12 21.7412ZM8.94 12.4913C8.76414 12.0877 8.67554 11.6515 8.68 11.2112C8.68 10.7725 8.76 10.3325 8.94 9.9325C9.12 9.5325 9.36 9.17375 9.66 8.87375C9.96 8.57375 10.32 8.335 10.72 8.155C11.12 7.975 11.56 7.895 12 7.895C12.46 7.895 12.88 7.975 13.28 8.155C13.68 8.335 14.04 8.575 14.34 8.87375C14.64 9.17375 14.88 9.53375 15.06 9.9325C15.24 10.3325 15.32 10.7725 15.32 11.2112C15.32 11.6712 15.24 12.0913 15.06 12.49C14.8873 12.8846 14.6432 13.244 14.34 13.55C14.0339 13.8527 13.6745 14.0964 13.28 14.2688C12.4534 14.6077 11.5266 14.6077 10.7 14.2688C10.3055 14.0964 9.94612 13.8527 9.64 13.55C9.33656 13.2483 9.0983 12.8888 8.94 12.4913ZM18.22 19.1238C18.22 19.0837 18.2 19.0638 18.2 19.0238C18.0037 18.3979 17.7137 17.8053 17.34 17.2663C16.966 16.7232 16.5067 16.2441 15.98 15.8475C15.5776 15.5447 15.1413 15.2896 14.68 15.0875C14.8889 14.9478 15.0832 14.7874 15.26 14.6087C15.5582 14.3144 15.82 13.9854 16.04 13.6287C16.4845 12.9017 16.7133 12.0633 16.7 11.2112C16.7065 10.5806 16.584 9.9553 16.34 9.37375C16.0994 8.81331 15.7531 8.30447 15.32 7.875C14.8865 7.45131 14.3778 7.11218 13.82 6.875C13.2376 6.63107 12.6114 6.50898 11.98 6.51625C11.3485 6.50937 10.7223 6.63189 10.14 6.87625C9.57605 7.11054 9.0657 7.45716 8.64 7.895C8.2141 8.32621 7.87466 8.83494 7.64 9.39375C7.39597 9.9753 7.27346 10.6006 7.28 11.2312C7.28 11.6713 7.34 12.0908 7.46 12.49C7.58 12.91 7.74 13.29 7.96 13.6488C8.16 14.0087 8.44 14.3288 8.74 14.6288C8.92 14.8088 9.12 14.9683 9.34 15.1075C8.87662 15.3138 8.44008 15.5757 8.04 15.8875C7.52 16.2875 7.06 16.7662 6.68 17.2863C6.30284 17.8233 6.01262 18.4164 5.82 19.0438C5.8 19.0837 5.8 19.1238 5.8 19.1437C4.22 17.545 3.24 15.3875 3.24 12.99C3.24 8.175 7.18 4.23875 12 4.23875C16.82 4.23875 20.76 8.175 20.76 12.99C20.7574 15.2899 19.8441 17.4953 18.22 19.1238Z" fill="currentColor"/>
</svg>
