<svg width="24" height="24" viewBox="0 0 24 24" fill="none" xmlns="http://www.w3.org/2000/svg">
<g clip-path="url(#clip0_5714_24919)">
<path d="M5.11904 23.764C5.04375 23.6896 4.98398 23.601 4.94319 23.5033C4.90239 23.4057 4.88139 23.3009 4.88139 23.195C4.88139 23.0892 4.90239 22.9844 4.94319 22.8867C4.98398 22.789 5.04375 22.7004 5.11904 22.626L9.28504 18.461C9.39581 18.3441 9.53919 18.2631 9.69656 18.2287C9.85393 18.1943 10.018 18.2081 10.1675 18.2681C10.3169 18.3282 10.4449 18.4318 10.5347 18.5656C10.6245 18.6993 10.672 18.8569 10.671 19.018C10.6713 19.1266 10.6494 19.2342 10.6068 19.334C10.5642 19.4339 10.5016 19.5241 10.423 19.599L6.25804 23.765C6.18363 23.8403 6.09502 23.9001 5.99735 23.9409C5.89968 23.9817 5.79488 24.0027 5.68904 24.0027C5.58319 24.0027 5.47839 23.9817 5.38072 23.9409C5.28305 23.9001 5.19444 23.8403 5.12004 23.765L5.11904 23.764ZM13.594 19.824C13.5188 19.7496 13.459 19.661 13.4182 19.5633C13.3774 19.4657 13.3564 19.3609 13.3564 19.255C13.3564 19.1492 13.3774 19.0444 13.4182 18.9467C13.459 18.849 13.5188 18.7604 13.594 18.686L16.653 15.63H8.15304L3.95504 19.825C3.88031 19.8997 3.7916 19.959 3.69398 19.9995C3.59635 20.0399 3.49171 20.0607 3.38603 20.0607C3.28036 20.0607 3.17572 20.0399 3.07809 19.9995C2.98047 19.959 2.89176 19.8997 2.81703 19.825C2.74231 19.7503 2.68304 19.6616 2.6426 19.564C2.60216 19.4663 2.58135 19.3617 2.58135 19.256C2.58135 19.1504 2.60216 19.0457 2.6426 18.9481C2.68304 18.8505 2.74231 18.7617 2.81703 18.687L5.87704 15.627H5.74204C4.20219 15.627 2.72541 15.0153 1.63657 13.9265C0.547737 12.8376 -0.0639648 11.3609 -0.0639648 9.82102C-0.0639648 8.28118 0.547737 6.8044 1.63657 5.71556C2.72541 4.62673 4.20219 4.01502 5.74204 4.01502H5.80904H5.80604C5.89604 4.01502 5.98604 4.02202 6.07504 4.02602C7.43904 1.60602 9.99203 -0.000976307 12.921 -0.000976307C13.9495 -0.00123902 14.968 0.201129 15.9183 0.594568C16.8686 0.988008 17.732 1.56481 18.4593 2.29202C19.1866 3.01924 19.7635 3.88262 20.1571 4.83284C20.5507 5.78307 20.7532 6.80152 20.753 7.83002V7.84502C21.6104 8.05629 22.3724 8.54848 22.9176 9.24315C23.4627 9.93782 23.7597 10.795 23.761 11.678C23.761 12.1962 23.659 12.7093 23.4607 13.1881C23.2624 13.6668 22.9717 14.1018 22.6053 14.4683C22.2389 14.8347 21.8039 15.1253 21.3251 15.3237C20.8464 15.522 20.3332 15.624 19.815 15.624H18.931L14.733 19.822C14.6586 19.8973 14.57 19.9571 14.4724 19.9979C14.3747 20.0387 14.2699 20.0597 14.164 20.0597C14.0582 20.0597 13.9534 20.0387 13.8557 19.9979C13.758 19.9571 13.6694 19.8973 13.595 19.822L13.594 19.824ZM1.60904 9.82002C1.60983 10.9327 2.05213 11.9996 2.83883 12.7865C3.62553 13.5734 4.69234 14.016 5.80504 14.017H19.809C20.4294 14.0169 21.0243 13.7703 21.4628 13.3316C21.9014 12.8929 22.1477 12.2979 22.1475 11.6775C22.1474 11.0572 21.9008 10.4623 21.4621 10.0237C21.0234 9.58519 20.4284 9.33889 19.808 9.33902C19.231 9.33902 18.704 9.54802 18.296 9.89302L18.299 9.89002C18.1357 10.0237 17.9265 10.088 17.7163 10.0691C17.5061 10.0502 17.3117 9.94959 17.1749 9.78892C17.0381 9.62826 16.9697 9.42033 16.9845 9.20981C16.9993 8.99929 17.0961 8.80297 17.254 8.66302L17.255 8.66202C17.7838 8.212 18.4232 7.91131 19.107 7.79102L19.131 7.78702C19.1192 6.4627 18.6849 5.17673 17.8915 4.11633C17.098 3.05594 15.9869 2.27648 14.7197 1.89143C13.4525 1.50638 12.0955 1.53585 10.8463 1.97554C9.597 2.41523 8.52069 3.24219 7.77404 4.33602L7.76004 4.35702C8.36829 4.57367 8.93609 4.89036 9.44003 5.29402L9.42904 5.28502C9.59559 5.41869 9.70223 5.61305 9.72548 5.82534C9.74873 6.03763 9.6867 6.25047 9.55304 6.41702C9.41937 6.58358 9.22501 6.69021 9.01272 6.71347C8.80043 6.73672 8.58759 6.67469 8.42103 6.54102L8.42204 6.54202C7.68466 5.94555 6.76445 5.62105 5.81604 5.62302H5.80504H5.80604C4.69282 5.62329 3.62524 6.06549 2.83789 6.85247C2.05054 7.63944 1.60783 8.70681 1.60704 9.82002H1.60904Z" fill="currentColor"/>
</g>
<defs>
<clipPath id="clip0_5714_24919">
<rect width="24" height="24" fill="white"/>
</clipPath>
</defs>
</svg>
