<svg width="24" height="24" viewBox="0 0 24 24" fill="none" xmlns="http://www.w3.org/2000/svg">
<path d="M13.002 8.0071C16.171 8.0071 17.968 10.1041 18.229 12.6371H18.309C18.7933 12.6364 19.2729 12.7312 19.7206 12.9159C20.1682 13.1007 20.5751 13.3718 20.9179 13.7138C21.2608 14.0558 21.5329 14.462 21.7187 14.9092C21.9046 15.3564 22.0005 15.8358 22.001 16.3201C22.0003 16.8043 21.9043 17.2836 21.7184 17.7307C21.5325 18.1778 21.2604 18.5838 20.9176 18.9257C20.5747 19.2676 20.1679 19.5387 19.7203 19.7234C19.2728 19.908 18.7932 20.0028 18.309 20.0021H7.695C7.21081 20.0028 6.73124 19.908 6.28366 19.7234C5.83608 19.5387 5.42926 19.2676 5.08643 18.9257C4.74359 18.5838 4.47146 18.1778 4.28557 17.7307C4.09967 17.2836 4.00365 16.8043 4.003 16.3201C4.00352 15.8358 4.09944 15.3564 4.28528 14.9092C4.47111 14.462 4.74323 14.0558 5.08608 13.7138C5.42892 13.3718 5.83579 13.1007 6.28343 12.9159C6.73108 12.7312 7.21073 12.6364 7.695 12.6371H7.775C8.038 10.0871 9.834 8.0071 13.002 8.0071ZM4.368 12.1621C4.43745 12.3297 4.44381 12.5168 4.38589 12.6887C4.32797 12.8606 4.2097 13.0057 4.053 13.0971L3.962 13.1421L3.035 13.5261C2.85964 13.5976 2.66374 13.6001 2.48662 13.5331C2.3095 13.4661 2.16427 13.3346 2.0801 13.165C1.99592 12.9954 1.97902 12.8002 2.03279 12.6186C2.08656 12.437 2.20703 12.2825 2.37 12.1861L2.461 12.1401L3.388 11.7571C3.57166 11.6809 3.77807 11.6808 3.96184 11.7567C4.14562 11.8327 4.29171 11.9785 4.368 12.1621ZM10.855 7.3291L10.683 7.3871C8.899 8.0171 7.621 9.3921 7.068 11.2101L6.998 11.4601L6.94 11.6981L6.734 11.7371C6.13541 11.8618 5.56768 12.1045 5.064 12.4511C4.60567 11.6633 4.43446 10.7411 4.57953 9.8413C4.72459 8.94151 5.17696 8.1198 5.85964 7.51598C6.54232 6.91216 7.41314 6.56355 8.32391 6.52948C9.23467 6.49541 10.1291 6.77798 10.855 7.3291ZM2.94 7.3601L3.045 7.3951L3.972 7.7791C4.14612 7.85209 4.28631 7.98807 4.36458 8.15989C4.44284 8.33171 4.45342 8.52673 4.39421 8.706C4.335 8.88528 4.21035 9.03563 4.04514 9.12704C3.87994 9.21844 3.68634 9.24418 3.503 9.1991L3.4 9.1661L2.473 8.7821C2.29887 8.70911 2.15868 8.57313 2.08042 8.40131C2.00215 8.2295 1.99157 8.03448 2.05078 7.8552C2.10999 7.67592 2.23465 7.52557 2.39985 7.43417C2.56505 7.34276 2.75865 7.31703 2.942 7.3621M6.757 4.3761L6.802 4.4671L7.186 5.3941C7.25747 5.56946 7.25997 5.76536 7.19298 5.94248C7.126 6.1196 6.9945 6.26482 6.82487 6.349C6.65525 6.43318 6.46006 6.45008 6.2785 6.39631C6.09693 6.34254 5.94242 6.22207 5.846 6.0591L5.8 5.9681L5.417 5.0411C5.34552 4.86575 5.34303 4.66985 5.41001 4.49273C5.47699 4.31561 5.6085 4.17038 5.77812 4.0862C5.94774 4.00202 6.14293 3.98512 6.3245 4.0389C6.50606 4.09267 6.66057 4.21313 6.757 4.3761ZM11.111 4.0571C11.277 4.12601 11.4128 4.25227 11.4935 4.41287C11.5743 4.57347 11.5947 4.75773 11.551 4.9321L11.516 5.0371L11.133 5.9641C11.0611 6.1399 10.9252 6.28187 10.7528 6.36138C10.5803 6.44089 10.3841 6.452 10.2037 6.39247C10.0234 6.33295 9.87232 6.20722 9.78105 6.04067C9.68979 5.87412 9.66511 5.67914 9.712 5.4951L9.747 5.3891L10.131 4.4631C10.1687 4.37209 10.2239 4.28939 10.2936 4.21973C10.3632 4.15007 10.4459 4.09481 10.5369 4.05711C10.6279 4.01941 10.7254 4 10.8239 4C10.9225 4 11.02 4.0194 11.111 4.0571Z" fill="currentColor"/>
</svg>
