<svg width="24" height="24" viewBox="0 0 24 24" fill="none" xmlns="http://www.w3.org/2000/svg">
<path d="M7.5 5.25C7.5 4.25544 7.89509 3.30161 8.59835 2.59835C9.30161 1.89509 10.2554 1.5 11.25 1.5C12.2446 1.5 13.1984 1.89509 13.9017 2.59835C14.6049 3.30161 15 4.25544 15 5.25V13.425C15.7235 14.1634 16.2129 15.099 16.4068 16.1144C16.6007 17.1299 16.4905 18.18 16.0901 19.133C15.6896 20.0861 15.0166 20.8997 14.1556 21.4719C13.2946 22.044 12.2838 22.3492 11.25 22.3492C10.2162 22.3492 9.20543 22.044 8.3444 21.4719C7.48338 20.8997 6.81043 20.0861 6.40995 19.133C6.00947 18.18 5.89928 17.1299 6.09319 16.1144C6.28711 15.099 6.7765 14.1634 7.5 13.425V5.25ZM11.25 3C10.6533 3 10.081 3.23705 9.65901 3.65901C9.23706 4.08097 9 4.65326 9 5.25V14.0805L8.751 14.3055C8.18486 14.8118 7.78579 15.478 7.60661 16.2161C7.42743 16.9542 7.47657 17.7292 7.74755 18.4387C8.01852 19.1482 8.49855 19.7588 9.1241 20.1895C9.74966 20.6202 10.4913 20.8508 11.2508 20.8508C12.0103 20.8508 12.7518 20.6202 13.3774 20.1895C14.003 19.7588 14.483 19.1482 14.754 18.4387C15.0249 17.7292 15.0741 16.9542 14.8949 16.2161C14.7157 15.478 14.3166 14.8118 13.7505 14.3055L13.5 14.079V5.25C13.5 4.65326 13.2629 4.08097 12.841 3.65901C12.419 3.23705 11.8467 3 11.25 3ZM12 9C12 8.80109 11.921 8.61032 11.7803 8.46967C11.6397 8.32902 11.4489 8.25 11.25 8.25C11.0511 8.25 10.8603 8.32902 10.7197 8.46967C10.579 8.61032 10.5 8.80109 10.5 9V15.1275C9.99959 15.3044 9.57784 15.6526 9.30928 16.1104C9.04072 16.5682 8.94265 17.1062 9.03241 17.6293C9.12216 18.1524 9.39396 18.627 9.79976 18.9691C10.2056 19.3112 10.7192 19.4988 11.25 19.4988C11.7808 19.4988 12.2944 19.3112 12.7002 18.9691C13.106 18.627 13.3778 18.1524 13.4676 17.6293C13.5574 17.1062 13.4593 16.5682 13.1907 16.1104C12.9222 15.6526 12.5004 15.3044 12 15.1275V9Z" fill="currentColor"/>
</svg>
