<svg width="24" height="24" viewBox="0 0 24 24" fill="none" xmlns="http://www.w3.org/2000/svg">
<path fill-rule="evenodd" clip-rule="evenodd" d="M17.9552 4C19.9959 4 21.6562 5.64389 21.6562 7.66354L21.6571 10.0352C21.6571 10.2162 21.5849 10.3918 21.456 10.5198C21.328 10.6487 21.1534 10.7209 20.9714 10.7209C20.2519 10.7209 19.6667 11.2951 19.6667 12.0009C19.6667 12.7067 20.2519 13.2809 20.9714 13.2809C21.3499 13.2809 21.6571 13.5881 21.6571 13.9666V16.3365C21.6571 18.3561 19.9968 20 17.9561 20H5.70103C3.66034 20 2 18.3561 2 16.3365V13.9666C2 13.5881 2.3072 13.2809 2.68571 13.2809C3.40526 13.2809 3.9904 12.7067 3.9904 12.0009C3.9904 11.3152 3.42903 10.7977 2.68571 10.7977C2.50377 10.7977 2.32914 10.7255 2.20114 10.5966C2.07223 10.4686 2 10.293 2 10.112L2.00091 7.66354C2.00091 5.64389 3.66126 4 5.70194 4H17.9552ZM17.9552 5.37143H14.2048L14.2053 7.12795C14.2053 7.50647 13.8981 7.81367 13.5196 7.81367C13.1411 7.81367 12.8339 7.50647 12.8339 7.12795L12.8334 5.37143H5.70194C4.41737 5.37143 3.37234 6.4 3.37234 7.66354L3.37143 9.50857C4.52983 9.79291 5.36183 10.7858 5.36183 12.0009C5.36183 13.2279 4.5152 14.2629 3.37143 14.5637V16.3365C3.37143 17.6 4.41646 18.6286 5.70103 18.6286H12.8334L12.8339 17.2677C12.8339 16.8882 13.1411 16.5819 13.5196 16.5819C13.8981 16.5819 14.2053 16.8882 14.2053 17.2677L14.2048 18.6286H17.9561C19.2407 18.6286 20.2857 17.6 20.2857 16.3365V14.5637C19.1419 14.2629 18.2953 13.2279 18.2953 12.0009C18.2953 10.773 19.141 9.73897 20.2857 9.43817L20.2848 7.66354C20.2848 6.4 19.2398 5.37143 17.9552 5.37143ZM13.5196 9.03269C13.8981 9.03269 14.2053 9.33989 14.2053 9.7184V14.1262C14.2053 14.5047 13.8981 14.8119 13.5196 14.8119C13.1411 14.8119 12.8339 14.5047 12.8339 14.1262V9.7184C12.8339 9.33989 13.1411 9.03269 13.5196 9.03269Z" fill="currentColor"/>
</svg>
