<svg xmlns="http://www.w3.org/2000/svg" width="100%" height="100%" viewBox="0 0 18 18" fill="none">
  <path fill-rule="evenodd" clip-rule="evenodd" d="M18 12.9232C18 15.9597 15.8685 18 12.6963 18L5.30372 18C2.13153 18 -6.97622e-07 15.9597 -5.64889e-07 12.9232L-2.21916e-07 5.07684C-8.91834e-08 2.04028 2.13154 -6.93633e-07 5.30372 -5.54972e-07L12.6963 -2.31833e-07C15.8685 -9.31723e-08 18 2.04028 18 5.07684L18 12.9232ZM16.7442 12.9232L16.7442 5.07684C16.7442 2.75609 15.156 1.25581 12.6963 1.25581L5.30372 1.25581C2.844 1.25581 1.25581 2.75609 1.25581 5.07684L1.25581 12.9232C1.25581 15.2447 2.844 16.7442 5.30372 16.7442L12.6963 16.7442C15.156 16.7442 16.7442 15.2447 16.7442 12.9232ZM11.1328 5.12464C11.1328 5.47125 10.8515 5.75255 10.5049 5.75255L4.76163 5.75255C4.41502 5.75255 4.13372 5.47125 4.13372 5.12464C4.13372 4.77804 4.41502 4.49673 4.76163 4.49673L10.5049 4.49673C10.8515 4.49673 11.1328 4.77804 11.1328 5.12464ZM13.8822 9.0319C13.8822 9.3785 13.6009 9.6598 13.2543 9.6598L4.76247 9.6598C4.41586 9.6598 4.13456 9.3785 4.13456 9.0319C4.13456 8.68529 4.41586 8.40399 4.76247 8.40399L13.2543 8.40399C13.6009 8.40399 13.8822 8.68529 13.8822 9.0319ZM8.09791 12.8749C8.09791 13.2215 7.8166 13.5028 7.47 13.5028L4.76246 13.5028C4.41586 13.5028 4.13456 13.2215 4.13456 12.8749C4.13456 12.5283 4.41586 12.247 4.76246 12.247L7.47 12.247C7.8166 12.247 8.09791 12.5283 8.09791 12.8749Z" fill="#666666"/>
</svg>