<svg xmlns="http://www.w3.org/2000/svg" width="100%" height="100%" viewBox="0 0 18 18" fill="none">
    <path d="M18 13.2021C18 16.263 16.2639 17.991 13.203 18L4.797 18C1.737 18 -7.10878e-07 16.263 -5.77082e-07 13.2021L-2.09684e-07 4.797C-7.58873e-08 1.7361 1.737 -7.10878e-07 4.797 -5.77121e-07L13.203 -2.09684e-07C16.2639 -7.58873e-08 18 1.7361 18 4.797L18 13.2021ZM14.283 9.45C14.436 9.1971 14.436 8.8911 14.283 8.649C14.1309 8.4051 13.851 8.271 13.572 8.2971L4.401 8.2971C4.014 8.343 3.726 8.6661 3.726 9.0441C3.726 9.432 4.014 9.7551 4.401 9.7911L13.572 9.7911C13.851 9.8271 14.1309 9.693 14.283 9.45ZM11.331 5.247C11.484 5.004 11.484 4.6971 11.331 4.455C11.178 4.2111 10.8999 4.077 10.62 4.104L4.401 4.104C4.014 4.1391 3.726 4.4631 3.726 4.8501C3.726 5.238 4.014 5.5611 4.401 5.5971L10.62 5.5971C10.8999 5.625 11.178 5.4891 11.331 5.247ZM8.064 13.5801C8.217 13.338 8.217 13.032 8.064 12.78C7.911 12.5361 7.6419 12.402 7.353 12.438L4.401 12.438C4.014 12.474 3.726 12.7971 3.726 13.185C3.726 13.563 4.014 13.8861 4.401 13.932L7.353 13.932C7.6419 13.9581 7.911 13.824 8.064 13.5801Z" fill="black"/>
</svg>