<svg width="100%" height="100%" viewBox="0 0 16 16" fill="none" xmlns="http://www.w3.org/2000/svg">
<path fill-rule="evenodd" clip-rule="evenodd" d="M0 2C0 0.895431 0.895431 0 2 0H14C15.1046 0 16 0.895431 16 2V14C16 15.1046 15.1046 16 14 16H2C0.895431 16 0 15.1046 0 14V2ZM2.67852 4.57143C2.67852 3.52604 3.52598 2.67857 4.57137 2.67857H6.85709C7.90248 2.67857 8.74994 3.52604 8.74994 4.57143V6.85715C8.74994 7.90254 7.90248 8.75 6.85709 8.75H4.57137C3.52598 8.75 2.67852 7.90254 2.67852 6.85715V4.57143ZM4.57137 4.17857C4.35441 4.17857 4.17852 4.35447 4.17852 4.57143V6.85715C4.17852 7.07411 4.35441 7.25 4.57137 7.25H6.85709C7.07405 7.25 7.24994 7.07411 7.24994 6.85715V4.57143C7.24994 4.35447 7.07405 4.17857 6.85709 4.17857H4.57137ZM4.17856 10.8571C4.17856 10.4429 3.84278 10.1071 3.42856 10.1071C3.01435 10.1071 2.67856 10.4429 2.67856 10.8571V12.5714C2.67856 12.9856 3.01435 13.3214 3.42856 13.3214H5.14285C5.55706 13.3214 5.89285 12.9856 5.89285 12.5714C5.89285 12.1572 5.55706 11.8214 5.14285 11.8214H4.17856V10.8571ZM5.53567 10.8571C5.53567 10.4429 5.87146 10.1071 6.28567 10.1071H7.99996C8.41417 10.1071 8.74996 10.4429 8.74996 10.8571V12.5714C8.74996 12.9856 8.41417 13.3214 7.99996 13.3214C7.58575 13.3214 7.24996 12.9856 7.24996 12.5714V11.6071H6.28567C5.87146 11.6071 5.53567 11.2713 5.53567 10.8571ZM11.6072 3.42856C11.6072 3.01435 11.2714 2.67856 10.8572 2.67856C10.4429 2.67856 10.1072 3.01435 10.1072 3.42856V5.14285C10.1072 5.55706 10.4429 5.89285 10.8572 5.89285H12.5714C12.9857 5.89285 13.3214 5.55706 13.3214 5.14285C13.3214 4.72863 12.9857 4.39285 12.5714 4.39285H11.6072V3.42856ZM10.1072 7.42856C10.1072 7.01435 10.4429 6.67856 10.8572 6.67856H12.5714C12.9857 6.67856 13.3214 7.01435 13.3214 7.42856V9.14285C13.3214 9.55706 12.9857 9.89285 12.5714 9.89285C12.1572 9.89285 11.8214 9.55706 11.8214 9.14285V8.17856H10.8572C10.4429 8.17856 10.1072 7.84277 10.1072 7.42856ZM11.6072 10.8571C11.6072 10.4429 11.2714 10.1071 10.8572 10.1071C10.4429 10.1071 10.1072 10.4429 10.1072 10.8571V12.5714C10.1072 12.9856 10.4429 13.3214 10.8572 13.3214H12.5714C12.9857 13.3214 13.3214 12.9856 13.3214 12.5714C13.3214 12.1572 12.9857 11.8214 12.5714 11.8214H11.6072V10.8571Z" fill="black"/>
</svg>
