<svg xmlns="http://www.w3.org/2000/svg" width="100%" height="100%" viewBox="0 0 27 25" fill="none">
  <path fill-rule="evenodd" clip-rule="evenodd" d="M5.15351 16.6585C5.15351 13.246 9.81068 12.8515 13.3135 12.8515L13.4395 12.8516L13.7191 12.8524C14.221 12.8552 14.8669 12.8674 15.5715 12.9209C15.07 13.3753 14.6328 13.8993 14.2754 14.4779C13.9516 14.4681 13.6293 14.4638 13.3135 14.4638C8.9691 14.4638 6.76573 15.2022 6.76573 16.6585C6.76573 18.1165 8.94169 18.8612 13.2324 18.8704C13.2799 19.4282 13.391 19.9678 13.5584 20.4819L12.9079 20.4819C10.5801 20.469 5.15351 20.2533 5.15351 16.6585ZM17.7254 13.226C19.6876 13.6643 21.4735 14.6155 21.4735 16.68C21.4735 19.6747 17.7966 20.311 15.1443 20.4462C14.9342 19.9436 14.7941 19.4044 14.7363 18.8409C18.1386 18.6902 19.8613 17.9649 19.8613 16.68C19.8613 15.3955 18.1118 14.8229 16.0367 14.5952C16.5048 14.0376 17.0778 13.5711 17.7254 13.226ZM-0.000976562 15.1838C-0.000976562 14.1315 0.608443 12.7848 3.51689 12.3495C3.94897 12.2925 4.36707 12.5881 4.4337 13.0288C4.49927 13.4684 4.1951 13.879 3.75442 13.9456C2.33244 14.1573 1.61124 14.5744 1.61124 15.1838C1.61124 15.3644 1.61125 15.7868 2.52484 16.1328C2.94079 16.2898 3.15038 16.7562 2.99238 17.1722C2.87093 17.4936 2.5646 17.6924 2.23894 17.6924C2.14328 17.6924 2.04654 17.6752 1.95303 17.6397C0.337588 17.0282 -0.000976562 15.9673 -0.000976562 15.1838ZM7.79427 5.51917C7.79427 2.47637 10.2707 0 13.3135 0C16.3574 0 18.8337 2.47637 18.8337 5.51917C18.8337 8.56197 16.3574 11.0383 13.3135 11.0383H13.277C11.8077 11.033 10.4265 10.4558 9.39257 9.41214C8.35645 8.36958 7.78788 6.98522 7.79427 5.51917ZM2.05095 5.50283C2.05095 3.36073 3.58364 1.55397 5.69564 1.20788C6.13309 1.13801 6.54905 1.43359 6.62106 1.87319C6.69307 2.31278 6.39535 2.72659 5.95575 2.79967C4.62835 3.01679 3.66317 4.15394 3.66317 5.50176C3.66532 6.85817 4.6778 8.0222 6.01916 8.21029C6.45984 8.27155 6.76616 8.67998 6.70489 9.12066C6.64793 9.52371 6.30291 9.81498 5.90738 9.81498C5.86976 9.81498 5.83215 9.81284 5.79453 9.80746C3.66425 9.50866 2.05525 7.65783 2.05095 5.50283ZM17.2215 5.51917C17.2215 3.36524 15.4685 1.61222 13.3135 1.61222C11.1596 1.61222 9.40651 3.36524 9.40651 5.52239C9.40225 6.56066 9.80315 7.53982 10.5362 8.27607C11.2681 9.01446 12.2441 9.42182 13.2802 9.42612H13.3135C15.4685 9.42612 17.2215 7.6731 17.2215 5.51917Z" fill="#666666"/>
  <path d="M20.5872 24.0006C23.6568 24.0006 26.1452 21.5123 26.1452 18.4427C26.1452 15.3731 23.6568 12.8848 20.5872 12.8848C17.5177 12.8848 15.0293 15.3731 15.0293 18.4427C15.0293 21.5123 17.5177 24.0006 20.5872 24.0006Z" fill="white" stroke="#666666" stroke-width="1.5" stroke-linecap="round" stroke-linejoin="round"/>
  <path d="M20.585 15.1074V18.4422L22.8081 19.5538" fill="white"/>
  <path d="M20.585 15.1074V18.4422L22.8081 19.5538" stroke="#666666" stroke-width="1.5" stroke-linecap="round" stroke-linejoin="round"/>
</svg>