<svg width="100%" height="100%" viewBox="0 0 18 20" fill="none" xmlns="http://www.w3.org/2000/svg">
<path d="M2.5767 18H0.605114V12.1818H2.61648C3.19413 12.1818 3.69034 12.2983 4.10511 12.5312C4.52178 12.7623 4.84186 13.0947 5.06534 13.5284C5.28883 13.9621 5.40057 14.4811 5.40057 15.0852C5.40057 15.6913 5.28788 16.2121 5.0625 16.6477C4.83902 17.0833 4.5161 17.4176 4.09375 17.6506C3.6733 17.8835 3.16761 18 2.5767 18ZM1.65909 17.0881H2.52557C2.93087 17.0881 3.26894 17.0142 3.53977 16.8665C3.81061 16.7169 4.0142 16.4943 4.15057 16.1989C4.28693 15.9015 4.35511 15.5303 4.35511 15.0852C4.35511 14.6402 4.28693 14.2708 4.15057 13.9773C4.0142 13.6818 3.8125 13.4612 3.54545 13.3153C3.2803 13.1676 2.95076 13.0938 2.55682 13.0938H1.65909V17.0881ZM11.6009 15.0909C11.6009 15.7178 11.4834 16.2547 11.2486 16.7017C11.0156 17.1468 10.6974 17.4877 10.294 17.7244C9.89252 17.9612 9.43703 18.0795 8.92756 18.0795C8.41809 18.0795 7.96165 17.9612 7.55824 17.7244C7.15672 17.4858 6.83854 17.1439 6.60369 16.6989C6.37074 16.2519 6.25426 15.7159 6.25426 15.0909C6.25426 14.464 6.37074 13.928 6.60369 13.483C6.83854 13.036 7.15672 12.6941 7.55824 12.4574C7.96165 12.2206 8.41809 12.1023 8.92756 12.1023C9.43703 12.1023 9.89252 12.2206 10.294 12.4574C10.6974 12.6941 11.0156 13.036 11.2486 13.483C11.4834 13.928 11.6009 14.464 11.6009 15.0909ZM10.5412 15.0909C10.5412 14.6496 10.4721 14.2775 10.3338 13.9744C10.1974 13.6695 10.008 13.4394 9.76562 13.2841C9.5232 13.1269 9.24384 13.0483 8.92756 13.0483C8.61127 13.0483 8.33191 13.1269 8.08949 13.2841C7.84706 13.4394 7.65672 13.6695 7.51847 13.9744C7.3821 14.2775 7.31392 14.6496 7.31392 15.0909C7.31392 15.5322 7.3821 15.9053 7.51847 16.2102C7.65672 16.5133 7.84706 16.7434 8.08949 16.9006C8.33191 17.0559 8.61127 17.1335 8.92756 17.1335C9.24384 17.1335 9.5232 17.0559 9.76562 16.9006C10.008 16.7434 10.1974 16.5133 10.3338 16.2102C10.4721 15.9053 10.5412 15.5322 10.5412 15.0909ZM17.5774 14.1449H16.5149C16.4846 13.9706 16.4287 13.8163 16.3473 13.6818C16.2659 13.5455 16.1645 13.4299 16.0433 13.3352C15.9221 13.2405 15.7839 13.1695 15.6286 13.1222C15.4751 13.0729 15.3094 13.0483 15.1314 13.0483C14.8151 13.0483 14.5348 13.1278 14.2905 13.2869C14.0462 13.4441 13.8549 13.6752 13.7166 13.9801C13.5784 14.2831 13.5092 14.6534 13.5092 15.0909C13.5092 15.536 13.5784 15.911 13.7166 16.2159C13.8568 16.5189 14.0481 16.7481 14.2905 16.9034C14.5348 17.0568 14.8142 17.1335 15.1286 17.1335C15.3028 17.1335 15.4657 17.1108 15.6172 17.0653C15.7706 17.018 15.9079 16.9489 16.0291 16.858C16.1522 16.767 16.2554 16.6553 16.3388 16.5227C16.424 16.3902 16.4827 16.2386 16.5149 16.0682L17.5774 16.0739C17.5376 16.3504 17.4515 16.6098 17.3189 16.8523C17.1882 17.0947 17.0168 17.3087 16.8047 17.4943C16.5926 17.678 16.3445 17.822 16.0604 17.9261C15.7763 18.0284 15.4609 18.0795 15.1143 18.0795C14.603 18.0795 14.1465 17.9612 13.745 17.7244C13.3435 17.4877 13.0272 17.1458 12.7962 16.6989C12.5651 16.2519 12.4496 15.7159 12.4496 15.0909C12.4496 14.464 12.5661 13.928 12.799 13.483C13.032 13.036 13.3492 12.6941 13.7507 12.4574C14.1522 12.2206 14.6068 12.1023 15.1143 12.1023C15.4382 12.1023 15.7393 12.1477 16.0178 12.2386C16.2962 12.3295 16.5443 12.4631 16.7621 12.6392C16.9799 12.8134 17.1589 13.0275 17.299 13.2812C17.4411 13.5331 17.5339 13.821 17.5774 14.1449Z" fill="black"/>
<path d="M1 7H9.5" stroke="black" stroke-linecap="round"/>
<path d="M1 4H16" stroke="black" stroke-linecap="round"/>
<path d="M1 1H14" stroke="black" stroke-linecap="round"/>
</svg>
