<svg width="100%" height="100%" viewBox="0 0 16 20" fill="none" xmlns="http://www.w3.org/2000/svg">
<path d="M1 9L6.92233 5L11 9" stroke="black" stroke-linecap="round"/>
<path d="M10 7.5L12.0344 6L15 9" stroke="black" stroke-linecap="round"/>
<circle cx="12" cy="2" r="1" stroke="black"/>
<path d="M3.03338 12.1818H4.07884V16.2727C4.07694 16.6477 3.9974 16.9706 3.8402 17.2415C3.683 17.5104 3.4633 17.7178 3.18111 17.8636C2.9008 18.0076 2.5741 18.0795 2.20099 18.0795C1.86009 18.0795 1.55327 18.0189 1.28054 17.8977C1.00971 17.7746 0.794744 17.5928 0.635653 17.3523C0.476563 17.1117 0.397017 16.8125 0.397017 16.4545H1.44531C1.44721 16.6117 1.4813 16.7472 1.54759 16.8608C1.61577 16.9744 1.70952 17.0616 1.82884 17.1222C1.94815 17.1828 2.08546 17.2131 2.24077 17.2131C2.40933 17.2131 2.55232 17.178 2.66974 17.108C2.78717 17.036 2.87618 16.9299 2.93679 16.7898C2.99929 16.6496 3.03149 16.4773 3.03338 16.2727V12.1818ZM5.2223 18V12.1818H7.40412C7.85109 12.1818 8.22609 12.2652 8.52912 12.4318C8.83404 12.5985 9.06416 12.8277 9.21946 13.1193C9.37666 13.4091 9.45526 13.7386 9.45526 14.108C9.45526 14.4811 9.37666 14.8125 9.21946 15.1023C9.06226 15.392 8.83026 15.6203 8.52344 15.7869C8.21662 15.9517 7.83878 16.0341 7.38991 16.0341H5.94389V15.1676H7.24787C7.50923 15.1676 7.72325 15.1222 7.88991 15.0312C8.05658 14.9403 8.17969 14.8153 8.25923 14.6562C8.34067 14.4972 8.38139 14.3144 8.38139 14.108C8.38139 13.9015 8.34067 13.7197 8.25923 13.5625C8.17969 13.4053 8.05563 13.2831 7.88707 13.196C7.72041 13.107 7.50545 13.0625 7.24219 13.0625H6.27628V18H5.2223ZM14.2685 14.0398C14.2211 13.8864 14.1558 13.7491 14.0724 13.6278C13.991 13.5047 13.8925 13.3996 13.777 13.3125C13.6634 13.2254 13.5327 13.16 13.3849 13.1165C13.2372 13.071 13.0762 13.0483 12.902 13.0483C12.5895 13.0483 12.3111 13.1269 12.0668 13.2841C11.8224 13.4413 11.6302 13.6723 11.4901 13.9773C11.3518 14.2803 11.2827 14.6496 11.2827 15.0852C11.2827 15.5246 11.3518 15.8968 11.4901 16.2017C11.6283 16.5066 11.8205 16.7386 12.0668 16.8977C12.313 17.0549 12.599 17.1335 12.9247 17.1335C13.2202 17.1335 13.4759 17.0767 13.6918 16.9631C13.9096 16.8494 14.0772 16.6884 14.1946 16.4801C14.312 16.2699 14.3707 16.0237 14.3707 15.7415L14.6094 15.7784H13.0298V14.9545H15.3906V15.6534C15.3906 16.1515 15.2846 16.5824 15.0724 16.946C14.8603 17.3097 14.5687 17.59 14.1974 17.7869C13.8262 17.982 13.4001 18.0795 12.919 18.0795C12.383 18.0795 11.9124 17.9593 11.5071 17.7188C11.1037 17.4763 10.7884 17.1326 10.5611 16.6875C10.3357 16.2405 10.223 15.7102 10.223 15.0966C10.223 14.6269 10.2893 14.2074 10.4219 13.8381C10.5563 13.4688 10.7438 13.1553 10.9844 12.8977C11.2249 12.6383 11.5071 12.4413 11.831 12.3068C12.1548 12.1705 12.5071 12.1023 12.8878 12.1023C13.2098 12.1023 13.5099 12.1496 13.7884 12.2443C14.0668 12.3371 14.3139 12.4697 14.5298 12.642C14.7476 12.8144 14.9266 13.0189 15.0668 13.2557C15.2069 13.4924 15.2988 13.7538 15.3423 14.0398H14.2685Z" fill="black"/>
</svg>
