<svg width="100%" height="100%" viewBox="0 0 16 22" fill="none" xmlns="http://www.w3.org/2000/svg">
<path d="M0.757457 20V14.1818H2.93928C3.38625 14.1818 3.76125 14.2652 4.06428 14.4318C4.3692 14.5985 4.59931 14.8277 4.75462 15.1193C4.91181 15.4091 4.99041 15.7386 4.99041 16.108C4.99041 16.4811 4.91181 16.8125 4.75462 17.1023C4.59742 17.392 4.36541 17.6203 4.05859 17.7869C3.75178 17.9517 3.37393 18.0341 2.92507 18.0341H1.47905V17.1676H2.78303C3.04439 17.1676 3.2584 17.1222 3.42507 17.0312C3.59174 16.9403 3.71484 16.8153 3.79439 16.6562C3.87583 16.4972 3.91655 16.3144 3.91655 16.108C3.91655 15.9015 3.87583 15.7197 3.79439 15.5625C3.71484 15.4053 3.59079 15.2831 3.42223 15.196C3.25556 15.107 3.0406 15.0625 2.77734 15.0625H1.81143V20H0.757457ZM7.87749 20H5.90589V14.1818H7.91726C8.49491 14.1818 8.99112 14.2983 9.4059 14.5312C9.82256 14.7623 10.1426 15.0947 10.3661 15.5284C10.5896 15.9621 10.7013 16.4811 10.7013 17.0852C10.7013 17.6913 10.5887 18.2121 10.3633 18.6477C10.1398 19.0833 9.81688 19.4176 9.39453 19.6506C8.97408 19.8835 8.46839 20 7.87749 20ZM6.95987 19.0881H7.82635C8.23165 19.0881 8.56972 19.0142 8.84055 18.8665C9.11139 18.7169 9.31499 18.4943 9.45135 18.1989C9.58771 17.9015 9.6559 17.5303 9.6559 17.0852C9.6559 16.6402 9.58771 16.2708 9.45135 15.9773C9.31499 15.6818 9.11328 15.4612 8.84624 15.3153C8.58108 15.1676 8.25154 15.0938 7.8576 15.0938H6.95987V19.0881ZM11.7028 20V14.1818H15.43V15.0653H12.7567V16.6449H15.1744V17.5284H12.7567V20H11.7028Z" fill="black"/>
<path d="M8.12829 3.22348C8.67166 1.55587 7.99253 1 7.44916 1C7.17747 1 5.28136 1.64771 8.12829 5.72489C10.166 8.64321 12.4752 8.78217 12.8828 8.08734C13.2903 7.3925 12.8827 6.14179 7.58481 7.11457C3.37374 7.88778 2.69462 10.4498 3.10215 10.8667C3.78149 11.5616 6.09055 9.61598 8.12829 3.22348Z" stroke="black"/>
</svg>
