<svg width="100%" height="100%" viewBox="0 0 18 20" fill="none" xmlns="http://www.w3.org/2000/svg">
<path d="M2 9L7.92233 5L12 9" stroke="black" stroke-linecap="round"/>
<path d="M11 7.5L13.0344 6L16 9" stroke="black" stroke-linecap="round"/>
<circle cx="13" cy="2" r="1" stroke="black"/>
<path d="M1.01527 18V12.1818H3.19709C3.64406 12.1818 4.01906 12.2652 4.32209 12.4318C4.62701 12.5985 4.85713 12.8277 5.01243 13.1193C5.16963 13.4091 5.24822 13.7386 5.24822 14.108C5.24822 14.4811 5.16963 14.8125 5.01243 15.1023C4.85523 15.392 4.62322 15.6203 4.31641 15.7869C4.00959 15.9517 3.63175 16.0341 3.18288 16.0341H1.73686V15.1676H3.04084C3.3022 15.1676 3.51622 15.1222 3.68288 15.0312C3.84955 14.9403 3.97266 14.8153 4.0522 14.6562C4.13364 14.4972 4.17436 14.3144 4.17436 14.108C4.17436 13.9015 4.13364 13.7197 4.0522 13.5625C3.97266 13.4053 3.8486 13.2831 3.68004 13.196C3.51338 13.107 3.29841 13.0625 3.03516 13.0625H2.06925V18H1.01527ZM10.945 12.1818V18H10.0075L7.26598 14.0369H7.21768V18H6.16371V12.1818H7.10689L9.84553 16.1477H9.89666V12.1818H10.945ZM15.9911 14.0398C15.9438 13.8864 15.8784 13.7491 15.7951 13.6278C15.7137 13.5047 15.6152 13.3996 15.4996 13.3125C15.386 13.2254 15.2553 13.16 15.1076 13.1165C14.9599 13.071 14.7989 13.0483 14.6246 13.0483C14.3121 13.0483 14.0337 13.1269 13.7894 13.2841C13.5451 13.4413 13.3529 13.6723 13.2127 13.9773C13.0745 14.2803 13.0053 14.6496 13.0053 15.0852C13.0053 15.5246 13.0745 15.8968 13.2127 16.2017C13.351 16.5066 13.5432 16.7386 13.7894 16.8977C14.0356 17.0549 14.3216 17.1335 14.6474 17.1335C14.9428 17.1335 15.1985 17.0767 15.4144 16.9631C15.6322 16.8494 15.7998 16.6884 15.9173 16.4801C16.0347 16.2699 16.0934 16.0237 16.0934 15.7415L16.332 15.7784H14.7525V14.9545H17.1133V15.6534C17.1133 16.1515 17.0072 16.5824 16.7951 16.946C16.583 17.3097 16.2913 17.59 15.9201 17.7869C15.5489 17.982 15.1228 18.0795 14.6417 18.0795C14.1057 18.0795 13.6351 17.9593 13.2298 17.7188C12.8263 17.4763 12.511 17.1326 12.2837 16.6875C12.0584 16.2405 11.9457 15.7102 11.9457 15.0966C11.9457 14.6269 12.012 14.2074 12.1445 13.8381C12.279 13.4688 12.4665 13.1553 12.707 12.8977C12.9476 12.6383 13.2298 12.4413 13.5536 12.3068C13.8775 12.1705 14.2298 12.1023 14.6104 12.1023C14.9324 12.1023 15.2326 12.1496 15.511 12.2443C15.7894 12.3371 16.0366 12.4697 16.2525 12.642C16.4703 12.8144 16.6493 13.0189 16.7894 13.2557C16.9296 13.4924 17.0214 13.7538 17.065 14.0398H15.9911Z" fill="black"/>
</svg>
