<svg width="100%" height="100%" viewBox="0 0 16 20" fill="none" xmlns="http://www.w3.org/2000/svg">
<path d="M1.82955 12.1818L3.1108 14.3125H3.15625L4.44318 12.1818H5.64489L3.85227 15.0909L5.6733 18H4.4517L3.15625 15.8835H3.1108L1.81534 18H0.599432L2.4375 15.0909L0.622159 12.1818H1.82955ZM6.4723 18V12.1818H7.52628V17.1165H10.0888V18H6.4723ZM14.1655 13.7812C14.139 13.5331 14.0272 13.34 13.8303 13.2017C13.6352 13.0634 13.3814 12.9943 13.0689 12.9943C12.8492 12.9943 12.6607 13.0275 12.5036 13.0938C12.3464 13.16 12.2261 13.25 12.1428 13.3636C12.0594 13.4773 12.0168 13.607 12.0149 13.7528C12.0149 13.8741 12.0424 13.9792 12.0973 14.0682C12.1541 14.1572 12.2308 14.233 12.3274 14.2955C12.424 14.3561 12.531 14.4072 12.6484 14.4489C12.7659 14.4905 12.8842 14.5256 13.0036 14.554L13.549 14.6903C13.7687 14.7415 13.9799 14.8106 14.1825 14.8977C14.3871 14.9848 14.5698 15.0947 14.7308 15.2273C14.8937 15.3598 15.0225 15.5199 15.1172 15.7074C15.2119 15.8949 15.2592 16.1146 15.2592 16.3665C15.2592 16.7074 15.1721 17.0076 14.9979 17.267C14.8236 17.5246 14.5717 17.7263 14.2422 17.8722C13.9145 18.0161 13.5178 18.0881 13.0518 18.0881C12.5992 18.0881 12.2062 18.018 11.8729 17.8778C11.5414 17.7377 11.282 17.5331 11.0945 17.2642C10.9089 16.9953 10.8085 16.6676 10.7933 16.2812H11.8303C11.8454 16.4839 11.9079 16.6525 12.0178 16.7869C12.1276 16.9214 12.2706 17.0218 12.4467 17.0881C12.6248 17.1544 12.8236 17.1875 13.0433 17.1875C13.2725 17.1875 13.4732 17.1534 13.6456 17.0852C13.8198 17.0152 13.9562 16.9186 14.0547 16.7955C14.1532 16.6705 14.2034 16.5246 14.2053 16.358C14.2034 16.2064 14.1589 16.0814 14.0717 15.983C13.9846 15.8826 13.8625 15.7992 13.7053 15.733C13.55 15.6648 13.3681 15.6042 13.1598 15.5511L12.4979 15.3807C12.0187 15.2576 11.6399 15.071 11.3615 14.821C11.085 14.5691 10.9467 14.2348 10.9467 13.8182C10.9467 13.4754 11.0395 13.1752 11.2251 12.9176C11.4126 12.66 11.6674 12.4602 11.9893 12.3182C12.3113 12.1742 12.6759 12.1023 13.0831 12.1023C13.496 12.1023 13.8577 12.1742 14.1683 12.3182C14.4808 12.4602 14.7261 12.6581 14.9041 12.9119C15.0821 13.1638 15.174 13.4536 15.1797 13.7812H14.1655Z" fill="black"/>
<path d="M1 1H6.6002" stroke="black" stroke-linecap="round"/>
<path d="M9.40039 1H15.0006" stroke="black" stroke-linecap="round"/>
<path d="M1 4.00098H6.6002" stroke="black" stroke-linecap="round"/>
<path d="M1 7H6.6002" stroke="black" stroke-linecap="round"/>
<path d="M9.39844 4.00098H14.9986" stroke="black" stroke-linecap="round"/>
<path d="M9.39844 7H14.9986" stroke="black" stroke-linecap="round"/>
</svg>
