<svg xmlns="http://www.w3.org/2000/svg" width="100%" height="100%" viewBox="0 0 15 16" fill="none">
  <path d="M12.7863 6.08398C12.7863 6.08398 12.3754 11.1809 12.137 13.3278C12.0235 14.3533 11.39 14.9542 10.3525 14.9731C8.37806 15.0086 6.40136 15.0109 4.42769 14.9693C3.42951 14.9489 2.80668 14.3404 2.69543 13.3331C2.45553 11.1672 2.04688 6.08398 2.04688 6.08398" stroke="#EC6C56" stroke-width="1.5" stroke-linecap="round" stroke-linejoin="round"/>
  <path d="M13.8334 3.64062H1" stroke="#EC6C56" stroke-width="1.5" stroke-linecap="round" stroke-linejoin="round"/>
  <path d="M11.3605 3.64039C10.7665 3.64039 10.2549 3.22038 10.1383 2.63842L9.95444 1.71818C9.84093 1.29363 9.45648 1 9.01831 1H5.81488C5.3767 1 4.99226 1.29363 4.87875 1.71818L4.69485 2.63842C4.57831 3.22038 4.06673 3.64039 3.47266 3.64039" stroke="#EC6C56" stroke-width="1.5" stroke-linecap="round" stroke-linejoin="round"/>
</svg>