                <svg xmlns="http://www.w3.org/2000/svg" width="18" height="23" viewBox="0 0 18 23" fill="none">
                    <path d="M12.8555 3.57861H14.8555C15.3859 3.57861 15.8946 3.78933 16.2697 4.1644C16.6448 4.53947 16.8555 5.04818 16.8555 5.57861V19.5786C16.8555 20.109 16.6448 20.6178 16.2697 20.9928C15.8946 21.3679 15.3859 21.5786 14.8555 21.5786H2.85547C2.32504 21.5786 1.81633 21.3679 1.44126 20.9928C1.06618 20.6178 0.855469 20.109 0.855469 19.5786V5.57861C0.855469 5.04818 1.06618 4.53947 1.44126 4.1644C1.81633 3.78933 2.32504 3.57861 2.85547 3.57861H4.85547" stroke="#666666" stroke-width="1.5" stroke-linecap="round" stroke-linejoin="round"/>
                    <path d="M11.8555 1.57861H5.85547C5.30318 1.57861 4.85547 2.02633 4.85547 2.57861V4.57861C4.85547 5.1309 5.30318 5.57861 5.85547 5.57861H11.8555C12.4078 5.57861 12.8555 5.1309 12.8555 4.57861V2.57861C12.8555 2.02633 12.4078 1.57861 11.8555 1.57861Z" stroke="#666666" stroke-width="1.5" stroke-linecap="round" stroke-linejoin="round"/>
                </svg>