                <svg xmlns="http://www.w3.org/2000/svg" width="24" height="21" viewBox="0 0 24 21" fill="none">
                    <path fill-rule="evenodd" clip-rule="evenodd" d="M8.65094 4.31348C8.24779 4.31348 7.84859 4.39288 7.47613 4.54716C7.10368 4.70144 6.76525 4.92756 6.48018 5.21263C6.19512 5.4977 5.96899 5.83612 5.81471 6.20858C5.66043 6.58104 5.58103 6.98024 5.58103 7.38339C5.58103 7.78653 5.66043 8.18573 5.81471 8.55819C5.96899 8.93065 6.19512 9.26907 6.48018 9.55414C6.76525 9.83921 7.10368 10.0653 7.47613 10.2196C7.84859 10.3739 8.24779 10.4533 8.65094 10.4533C9.46513 10.4533 10.246 10.1299 10.8217 9.55414C11.3974 8.97842 11.7208 8.19758 11.7208 7.38339C11.7208 6.5692 11.3974 5.78835 10.8217 5.21263C10.246 4.63691 9.46513 4.31348 8.65094 4.31348ZM7.25552 7.38339C7.25552 7.0133 7.40254 6.65837 7.66423 6.39668C7.92592 6.13499 8.28085 5.98797 8.65094 5.98797C9.02102 5.98797 9.37595 6.13499 9.63764 6.39668C9.89933 6.65837 10.0464 7.0133 10.0464 7.38339C10.0464 7.75347 9.89933 8.1084 9.63764 8.37009C9.37595 8.63178 9.02102 8.7788 8.65094 8.7788C8.28085 8.7788 7.92592 8.63178 7.66423 8.37009C7.40254 8.1084 7.25552 7.75347 7.25552 7.38339ZM8.65094 11.0115C7.31581 11.0115 6.06663 11.2794 5.11887 11.7538C4.22245 12.2026 3.34837 12.9773 3.34837 14.0814V14.1517C3.34613 14.721 3.3439 15.6811 4.25259 16.3386C4.67457 16.6434 5.23162 16.8387 5.92151 16.9626C6.61698 17.0877 7.50893 17.1513 8.65094 17.1513C9.79294 17.1513 10.6849 17.0877 11.3804 16.9626C12.0703 16.8387 12.6273 16.6434 13.0493 16.3375C13.958 15.68 13.9557 14.721 13.9535 14.1506V14.0814C13.9535 12.9762 13.0794 12.2026 12.183 11.7538C11.2352 11.2805 9.98607 11.0115 8.65094 11.0115ZM5.02286 14.0814C5.02286 13.953 5.14901 13.6114 5.86792 13.2519C6.53772 12.917 7.52009 12.686 8.65094 12.686C9.78178 12.686 10.7653 12.917 11.434 13.2519C12.1529 13.6114 12.279 13.953 12.279 14.0814C12.279 14.7556 12.2355 14.8595 12.0669 14.9823C11.9307 15.0805 11.6505 15.2122 11.0845 15.3149C10.5241 15.4154 9.74159 15.4768 8.65094 15.4768C7.56028 15.4768 6.77773 15.4154 6.21734 15.3149C5.65136 15.2122 5.37116 15.0805 5.23496 14.9823C5.06528 14.8595 5.02286 14.7556 5.02286 14.0814Z" fill="#666666"/>
                    <path d="M19.8139 11.5694C20.036 11.5694 20.2489 11.4812 20.4059 11.3242C20.563 11.1671 20.6512 10.9542 20.6512 10.7321C20.6512 10.5101 20.563 10.2971 20.4059 10.1401C20.2489 9.9831 20.036 9.89489 19.8139 9.89489H15.3486C15.1265 9.89489 14.9136 9.9831 14.7566 10.1401C14.5996 10.2971 14.5114 10.5101 14.5114 10.7321C14.5114 10.9542 14.5996 11.1671 14.7566 11.3242C14.9136 11.4812 15.1265 11.5694 15.3486 11.5694H19.8139ZM20.6512 7.38315C20.6512 7.6052 20.563 7.81816 20.4059 7.97517C20.2489 8.13218 20.036 8.22039 19.8139 8.22039H14.2323C14.0102 8.22039 13.7973 8.13218 13.6402 7.97517C13.4832 7.81816 13.395 7.6052 13.395 7.38315C13.395 7.16109 13.4832 6.94814 13.6402 6.79112C13.7973 6.63411 14.0102 6.5459 14.2323 6.5459H19.8139C20.036 6.5459 20.2489 6.63411 20.4059 6.79112C20.563 6.94814 20.6512 7.16109 20.6512 7.38315ZM19.8139 14.9184C20.036 14.9184 20.2489 14.8302 20.4059 14.6732C20.563 14.5161 20.6512 14.3032 20.6512 14.0811C20.6512 13.8591 20.563 13.6461 20.4059 13.4891C20.2489 13.3321 20.036 13.2439 19.8139 13.2439H16.4649C16.2429 13.2439 16.0299 13.3321 15.8729 13.4891C15.7159 13.6461 15.6277 13.8591 15.6277 14.0811C15.6277 14.3032 15.7159 14.5161 15.8729 14.6732C16.0299 14.8302 16.2429 14.9184 16.4649 14.9184H19.8139Z" fill="#666666"/>
                    <path fill-rule="evenodd" clip-rule="evenodd" d="M9.70426 0.964355H14.2946C16.3464 0.964355 17.9718 0.964356 19.2433 1.13515C20.5517 1.31153 21.6111 1.68216 22.4472 2.51717C23.2822 3.3533 23.6528 4.4127 23.8292 5.72104C24 6.99366 24 8.61792 24 10.6697V10.7948C24 12.8466 24 14.472 23.8292 15.7435C23.6528 17.0518 23.2822 18.1112 22.4472 18.9473C21.6111 19.7823 20.5517 20.153 19.2433 20.3293C17.9707 20.5001 16.3464 20.5001 14.2946 20.5001H9.70538C7.65356 20.5001 6.02819 20.5001 4.75669 20.3293C3.44835 20.153 2.38895 19.7823 1.55282 18.9473C0.717801 18.1112 0.347179 17.0518 0.170799 15.7435C0 14.4708 0 12.8466 0 10.7948V10.6697C0 8.61792 0 6.99254 0.170799 5.72104C0.347179 4.4127 0.717801 3.3533 1.55282 2.51717C2.38895 1.68216 3.44835 1.31153 4.75669 1.13515C6.0293 0.964356 7.65245 0.964355 9.70426 0.964355ZM4.97772 2.79514C3.85469 2.94584 3.20722 3.22939 2.73389 3.7016C2.2628 4.17381 1.97925 4.82128 1.82855 5.94431C1.6745 7.0919 1.67226 8.60341 1.67226 10.7323C1.67226 12.8611 1.6745 14.3737 1.82855 15.5213C1.97925 16.6432 2.2628 17.2907 2.73501 17.7629C3.20722 18.2351 3.85469 18.5187 4.97772 18.6694C6.12531 18.8234 7.63682 18.8257 9.76566 18.8257H14.231C16.3598 18.8257 17.8725 18.8234 19.02 18.6694C20.142 18.5187 20.7894 18.2351 21.2616 17.7629C21.7338 17.2907 22.0174 16.6432 22.1681 15.5202C22.3222 14.3726 22.3244 12.8611 22.3244 10.7323C22.3244 8.60341 22.3222 7.0919 22.1681 5.94319C22.0174 4.82128 21.7338 4.17381 21.2616 3.7016C20.7894 3.22939 20.142 2.94584 19.0189 2.79514C17.8725 2.64108 16.3598 2.63885 14.231 2.63885H9.76566C7.63682 2.63885 6.12642 2.64108 4.97772 2.79514Z" fill="#666666"/>
                </svg>