<svg xmlns="http://www.w3.org/2000/svg" width="30" height="29" viewBox="0 0 30 29" fill="none">
  <path fill-rule="evenodd" clip-rule="evenodd" d="M12.7519 0.149893C12.353 0.0167744 11.9301 -0.0284537 11.5122 0.0173149C11.0942 0.0630835 10.6911 0.198765 10.3306 0.415041L4.32832 4.01639C3.89686 4.27526 3.5398 4.64145 3.2919 5.0793C3.044 5.51715 2.91371 6.01174 2.91371 6.51489V26.0863H1.45686C1.07047 26.0863 0.699916 26.2398 0.426703 26.513C0.15349 26.7862 0 27.1568 0 27.5431C0 27.9295 0.15349 28.3001 0.426703 28.5733C0.699916 28.8465 1.07047 29 1.45686 29H27.6803C28.0666 29 28.4372 28.8465 28.7104 28.5733C28.9836 28.3001 29.1371 27.9295 29.1371 27.5431C29.1371 27.1568 28.9836 26.7862 28.7104 26.513C28.4372 26.2398 28.0666 26.0863 27.6803 26.0863H26.2234V6.73925C26.223 6.12815 26.0305 5.53263 25.6732 5.03694C25.3158 4.54124 24.8116 4.17047 24.2319 3.97705L12.7519 0.149893ZM23.3097 26.0863V6.73925L13.1117 3.34186V26.0863H23.3097ZM10.198 3.89255L5.82742 6.51489V26.0863H10.198V3.89255Z"/>
</svg>